<svg xmlns="http://www.w3.org/2000/svg" data-name="Layer 1" viewBox="0 0 3323.84 1705.75"><path fill="#ffac0e" d="M2620.19 593.31a759.62 759.62 0 0 0-206.46 28.44c-168.78-217.32-432.57-357.21-729.06-357.21-439.77 0-807.61 307.68-900.12 719.49A181.85 181.85 0 0 0 569 1198.28c-199.77 51.34-347.39 232.66-347.39 448.45A460.85 460.85 0 0 0 287 1884h2872.88c135.09-136.92 218.49-325 218.49-532.5.01-418.74-339.45-758.19-758.18-758.19Z" transform="translate(-105.56 -178.25)"/><rect width="183" height="310" x="2137.44" y="762.75" fill="#e0880c" rx="28.73" ry="28.73"/><rect width="183" height="310" x="1508.44" y="762.75" fill="#e0880c" rx="28.73" ry="28.73"/><rect width="183" height="310" x="989.44" y="762.75" fill="#e0880c" rx="28.73" ry="28.73"/><path fill="#f0980d" d="M2475.86 1308c-98.56 0-181.67 66.1-207.44 156.39h414.88c-25.77-90.24-108.89-156.39-207.44-156.39ZM3041.79 1308c-98.56 0-181.67 66.1-207.44 156.39h414.89c-25.78-90.24-108.89-156.39-207.45-156.39Z" transform="translate(-105.56 -178.25)"/><path fill="#f0980d" d="M2772.16 1241c-140.78 0-259.5 94.42-296.31 223.38h592.62c-36.8-128.91-155.53-223.38-296.31-223.38Z" transform="translate(-105.56 -178.25)"/><path fill="#fceedd" d="M346.18 333.59c-114.32 0-210.73 76.67-240.62 181.4h481.23c-29.89-104.72-126.3-181.4-240.61-181.4ZM1002.61 333.59C888.29 333.59 791.88 410.27 762 515h481.23c-29.9-104.73-126.3-181.41-240.62-181.41Z" transform="translate(-105.56 -178.25)"/><path fill="#fceedd" d="M689.87 255.89c-163.29 0-301 109.52-343.69 259.1h687.39c-42.7-149.59-180.41-259.1-343.7-259.1Z" transform="translate(-105.56 -178.25)"/><path fill="#fff" d="M374.08 475.87a114.05 114.05 0 0 0-109.64 82.65h219.28a114.05 114.05 0 0 0-109.64-82.65ZM673.18 475.87a114.05 114.05 0 0 0-109.64 82.65h219.28a114.05 114.05 0 0 0-109.64-82.65Z" transform="translate(-105.56 -178.25)"/><path fill="#fff" d="M530.68 440.46a162.91 162.91 0 0 0-156.6 118.06h313.2a162.91 162.91 0 0 0-156.6-118.06ZM2707.7 228.93a163.22 163.22 0 0 0-156.9 118.29h313.8a163.22 163.22 0 0 0-156.9-118.29ZM3135.76 228.93a163.22 163.22 0 0 0-156.9 118.29h313.8a163.22 163.22 0 0 0-156.9-118.29Z" transform="translate(-105.56 -178.25)"/><path fill="#fff" d="M2931.82 178.25c-106.48 0-196.28 71.41-224.12 169h448.24c-27.84-97.58-117.64-169-224.12-169Z" transform="translate(-105.56 -178.25)"/><path fill="#fceedd" d="M3073.77 553.87a62.66 62.66 0 0 0-60.24 45.41H3134a62.66 62.66 0 0 0-60.23-45.41ZM3238.11 553.87a62.66 62.66 0 0 0-60.24 45.41h120.48a62.66 62.66 0 0 0-60.24-45.41Z" transform="translate(-105.56 -178.25)"/><path fill="#fceedd" d="M3159.81 534.41a89.51 89.51 0 0 0-86 64.87h172.09a89.51 89.51 0 0 0-86.09-64.87Z" transform="translate(-105.56 -178.25)"/><path fill="#f0980d" d="M2870.24 333.47a66.37 66.37 0 0 0-63.8 48.1H2934a66.37 66.37 0 0 0-63.76-48.1ZM3044.31 333.47a66.37 66.37 0 0 0-63.8 48.1h127.6a66.37 66.37 0 0 0-63.8-48.1Z" transform="translate(-105.56 -178.25)"/><path fill="#f0980d" d="M2961.38 312.86a94.8 94.8 0 0 0-91.13 68.71h182.27a94.8 94.8 0 0 0-91.14-68.71Z" transform="translate(-105.56 -178.25)"/><path fill="#e6910c" d="M2638.09 1693.89H961.9a56.09 56.09 0 0 1 0-112.18h1676.19a56.09 56.09 0 0 1 0 112.18Z" transform="translate(-105.56 -178.25)"/><path fill="#fff" d="M2040 694.78a29.93 29.93 0 0 0 29.93-29.93 29.93 29.93 0 0 0 29.93 29.93 29.93 29.93 0 0 0-29.93 29.93 29.93 29.93 0 0 0-29.93-29.93ZM1156.77 694.78a29.93 29.93 0 0 0 29.93-29.93 29.93 29.93 0 0 0 29.93 29.93 29.93 29.93 0 0 0-29.93 29.93 29.93 29.93 0 0 0-29.93-29.93ZM1635.83 490.75a16.7 16.7 0 0 0 16.7-16.7 16.7 16.7 0 0 0 16.7 16.7 16.7 16.7 0 0 0-16.7 16.7 16.7 16.7 0 0 0-16.7-16.7ZM2438.79 882.3a16.7 16.7 0 0 0 16.7-16.7 16.7 16.7 0 0 0 16.7 16.7 16.7 16.7 0 0 0-16.7 16.7 16.7 16.7 0 0 0-16.7-16.7ZM1887.13 1058.57a16.7 16.7 0 0 0 16.7-16.7 16.7 16.7 0 0 0 16.7 16.7 16.7 16.7 0 0 0-16.7 16.7 16.7 16.7 0 0 0-16.7-16.7ZM1045.86 804.49a16.7 16.7 0 0 0 16.7-16.7 16.7 16.7 0 0 0 16.7 16.7 16.7 16.7 0 0 0-16.7 16.7 16.7 16.7 0 0 0-16.7-16.7Z" transform="translate(-105.56 -178.25)"/><path fill="#fdd699" d="M586.42 1601.05a167.35 167.35 0 0 0-160.87 121.28h321.74a167.35 167.35 0 0 0-160.87-121.28ZM1025.31 1601.05a167.35 167.35 0 0 0-160.87 121.28h321.75a167.35 167.35 0 0 0-160.88-121.28Z" transform="translate(-105.56 -178.25)"/><path fill="#fdd699" d="M816.21 1549.1c-109.18 0-201.25 73.22-229.79 173.24H1046c-28.54-100.02-120.61-173.24-229.79-173.24Z" transform="translate(-105.56 -178.25)"/><path fill="#8c8691" d="M651.52 1666.8a100.13 100.13 0 0 0-96.25 72.56h192.51a100.13 100.13 0 0 0-96.26-72.56ZM914.12 1666.8a100.13 100.13 0 0 0-96.25 72.56h192.51a100.13 100.13 0 0 0-96.26-72.56Z" transform="translate(-105.56 -178.25)"/><path fill="#8c8691" d="M789 1635.71a143 143 0 0 0-137.49 103.65h275A143 143 0 0 0 789 1635.71Z" transform="translate(-105.56 -178.25)"/><path fill="#49af8a" d="M1423.25 1681.43a60.16 60.16 0 0 0-57.83 43.6h115.67a60.16 60.16 0 0 0-57.84-43.6Z" transform="translate(-105.56 -178.25)"/><path fill="#49af8a" d="M1348.08 1662.75a85.93 85.93 0 0 0-82.61 62.28h165.22a85.93 85.93 0 0 0-82.61-62.28Z" transform="translate(-105.56 -178.25)"/><path fill="#a69400" d="M2843 1161.14s-35.38-5.63-53.82-6.72c-.44 39.31 26.65 84.08 38.39 95.81 14.7 14.64 28.16 45.61 27.35 74.08s44.77 26.78 44.77 26.78c38-18.85 31.88-109.46 20.13-158.48a278.93 278.93 0 0 0-25.57 24.47c.87-8 11.07-27.76 19.83-43.58-19.16-53.39-72.46-144.08-106.4-121.36-37.69 25.18 8.3 31.89-12.49 74.64a57.06 57.06 0 0 0-4.54 13.46c16.8 3.83 45.83 11.62 52.35 20.9Z" transform="translate(-105.56 -178.25)"/><path fill="none" stroke="#968a23" stroke-linecap="round" stroke-linejoin="round" stroke-width="10" d="M2920.28 1567.53s.49-198.42-53.66-376.75M2877.38 1231.17a102.32 102.32 0 00-48.91-14.45" transform="translate(-105.56 -178.25)"/><path fill="#a69400" d="M3002.11 1309.28c24.07 2.81 43.94-17.84 43.94-17.84 30.27-10.51 65-53.27 77.17-97.12 9.1-32.69 29.14-38.7 59.84-48.83-12.87-29-38.5-53.85-38.5-53.85 18 3.37 43.32 24.52 64.2 44.81 3-1.24 6.16-2.51 9.35-3.89 50.84-22 84.5-98.35 96.89-135.6s79.39-22.86 109.14-116.86-73.17-43-145.28-44.67a125.5 125.5 0 0 0-24 1.51c-2.6 21.51-5.16 45.58-4.58 54.38 0 0-17.94-19.08-30-39.07-21.2 17.64-31 47.1-52.29 78.27-34.7 50.64-93.33 49.09-130.35 92.8s-9.21 106.23-41.89 169.3-17.75 113.84 6.36 116.66Z" transform="translate(-105.56 -178.25)"/><path fill="none" stroke="#968a23" stroke-linecap="round" stroke-linejoin="round" stroke-width="10" d="M2961.38 1500.9s34.7-430.13 341.19-593.25M3083 1125.18s-12.78-40.33-33.73-64.26M3165 1014.46s49.06-9 86.95 9.21" transform="translate(-105.56 -178.25)"/><path fill="#504658" d="M2753.67 1266.77h169.97v237.19h-169.97z"/><path fill="#605767" d="M2739.13 1239.27h199.05v216.86a20.33 20.33 0 0 1-20.33 20.33h-158.4a20.33 20.33 0 0 1-20.33-20.33v-216.86h.01Z"/><path fill="#8c8691" d="M711 1292.74a22.25 22.25 0 0 1 14.44 37.73 640.11 640.11 0 0 1 26.64 72.82c4.79-20.42 13.46-50.44 27.64-77.8a22.28 22.28 0 1 1 10.38 6.05c-21.08 41-29.66 89.51-30.89 97 14.35 54.47 21.73 106.43 25.51 146.89 6.78 72.72 3.72 125.14 3.69 125.66l-12-.73c0-.51 3-52-3.66-123.82-2-21.59-5.07-46.5-9.69-73.31-7-5.07-34-23.1-75.66-34.06a22.26 22.26 0 1 1 1.78-11.94 259.49 259.49 0 0 1 70.91 29.6c-9.12-47.71-23.26-100.27-45.13-150.37a22.25 22.25 0 1 1-4-43.77ZM512.76 1415.75a20.21 20.21 0 0 1 27.24 24.59 581.58 581.58 0 0 1 51.6 48c-4.54-18.51-9.9-46.39-9.7-74.39a20.24 20.24 0 1 1 10.9.62c-.15 41.91 12.9 84.7 15 91.3 34.09 38.13 61.5 77.13 81.2 108.38 35.48 56.08 54.62 99.78 54.81 100.22l-10 4.35c-.19-.43-19-43.36-54-98.74a873.936 873.936 0 0 0-38.07-55.36c-7.77-1.21-37-4.7-75.3 3.62a20.22 20.22 0 1 1-3.48-10.4 235.78 235.78 0 0 1 69.61-5.27c-27.06-34.86-60.18-71.59-98.54-103.13a20.22 20.22 0 1 1-21.28-33.8Z" transform="translate(-105.56 -178.25)"/><path fill="#fff" d="M1873.1 700.2s5.46-50.7 16.29-57.6 11.1 41.95-7.48 66.54Z" transform="translate(-105.56 -178.25)"/><path fill="#49af8a" d="M1866.44 696.82c8.13-1.7 16.3-3.58 24.62-5 24.39 123.74-21.23 191.12-92.49 282.55-10.9 14-20.6 13.86-31-1.52-3.14 1.38-3.13 1.39 0 0-10.38-15.38-4.52-18.53 5.71-31.67 66.91-85.9 107.46-126.33 93.16-244.36Z" transform="translate(-105.56 -178.25)"/><path fill="#2d334a" d="M1810.19 785.17c-9.65-.8-21.47 5.61-24.94 15.16s3.73 19.59 12.8 22.88 27.71-6.12 31.17-15.67-6.81-21.36-19.03-22.37Z" transform="translate(-105.56 -178.25)"/><path fill="#2d334a" d="M1774.1 749.74c-19-15.32-52.7-18.7-73.37-3.69s-19.77 46.11-5.47 65.81 57.83 31.75 90.35 11.56c21.7-13.47 12.56-54.28-11.51-73.68Z" transform="translate(-105.56 -178.25)"/><path fill="#2d334a" d="M1778.27 825.06c-12.9-10.65-35.38-13.45-48.92-3.62s-12.46 30.87-2.63 44.4 44.65 18.91 58.18 9.08 9.7-36.37-6.63-49.86Z" transform="translate(-105.56 -178.25)"/><path fill="#fff" d="M1768.43 852.13c12.68 27.1 41.83 40.24 58.39 32.5s14.26-33.44 1.58-60.55-32.55-34.61-49.11-26.87-23.53 27.79-10.86 54.92Z" transform="translate(-105.56 -178.25)"/><path fill="#2d334a" d="M1756.42 836.71s-2.39-20 8.25-32.66 37.33-23.78 54.22-2.41c0 0 10.61 16.28-10.12 27.42s-21.25-1.83-27.78 13-19.17 10.5-20.22 13.74Z" transform="translate(-105.56 -178.25)"/><path fill="#49af8a" d="M1720.94 1289.05c-12.84-6.65-23.06-17.53-35.66-24.62-10.11-5.69-21.25-8.7-32.75-10.37 22.79-48.89 40.39-97.44 46.1-139.17 0 0 10.2-139.57 29.69-176.09 16.33-30.61 32.65-36.73 41.76-40.54 12.74-5.33 27.38-3.61 37.43 5.85l.57.54c11.63 11.22 12 35.52 13.82 60.81s11.48 20.67-10.86 64.66c-7.94 15.64 5 103.09 9 154.49a386.07 386.07 0 0 0 7.33 49.56c3.16 14.91 5.64 30.94 7.63 47.78-39.17 8.14-79.63 24.94-114.06 7.1Z" transform="translate(-105.56 -178.25)"/><path fill="#fff" d="M1678.18 1117.73s51.65 14.11 57 26.49-45.33 4.52-67.74-18.84Z" transform="translate(-105.56 -178.25)"/><path fill="#49af8a" d="M1684.55 1108c-3.25 8.59-6.73 17.33-11 25.91-150.37-90.23-30.39-186.86 93.11-222.55 18.89-5.46 19.37 36.31-10.24 41.83-103.92 19.33-169.5 87.45-71.87 154.81Z" transform="translate(-105.56 -178.25)"/><path fill="#fff" d="m1777.9 852.1 31.3 2.75c-.37 4.29-4.65 45-9 59.78-2 4.44-10.06 5.14-18 1.57-7.15-3.22-11.72-8.78-11.12-13.1 2.55-8.91 5.51-36.03 6.82-51Z" transform="translate(-105.56 -178.25)"/><path fill="#fff" d="M1759.59 865.17c3 6.31 13 11.45 17.55 9.31s3.32-7.78.37-14.09-9.41-10.48-14-8.34-6.87 6.81-3.92 13.12Z" transform="translate(-105.56 -178.25)"/><path fill="#fdd699" d="M2238.08 1231.07c18.16-6.07 55.57 3.66 73.62 0 26.58-5.42 39.67-3.41 66-1.86 3.36-82.45.5-168.71 6.52-249.56 1.3-17 2.16-27.13-1-39.87-4.26-17.15-13.19-29-24.78-35.26-14.19-7.77-32.35-7.17-50.7 2.21a41.17 41.17 0 0 0-8 4.81c-10.88 8.33-20.91 24.57-22.52 55.22-4.09 76.54-24.7 184.77-39.14 264.31Z" transform="translate(-105.56 -178.25)"/><path fill="#fff" d="M2149.62 933.49s17.54-55.5 31.21-60.77 3 49.44-23.37 72.77Z" transform="translate(-105.56 -178.25)"/><path fill="#fdd699" d="M2142.72 928.85c11.14 3.17 23 4.59 34.36 7.33-29.81 165.73 99.94 103 124.46-2.25 4.19-18 16.5-34.78 39.16-15.8 3.85 12.41 5.2 28.69-4.43 49.4-62.92 135.38-221.34 153.24-193.55-38.68Z" transform="translate(-105.56 -178.25)"/><path fill="#fff" d="M2354.47 854.58c-17.73 27.26-51.1 37-67.76 26.18s-10.31-38.16 7.43-65.42 40.27-32.35 56.93-21.52 21.14 33.49 3.4 60.76Z" transform="translate(-105.56 -178.25)"/><path fill="#fff" d="M2360.65 871.94c-4.13 6.35-15.71 10.36-20.3 7.37s-2.4-8.88 1.73-15.23 11.72-9.86 16.31-6.87 6.39 8.39 2.26 14.73Z" transform="translate(-105.56 -178.25)"/><path fill="#fff" d="m2350.52 850.06-34-3.32c-.46 4.65-4 49-2.29 65.69 1.25 5.15 9.72 7.51 18.93 5.27 8.28-2 14.27-7 14.51-11.78-.99-10.02 1.27-39.59 2.85-55.86Z" transform="translate(-105.56 -178.25)"/><path fill="#2e1a3d" d="M2337.86 863.91c-5-5.42-9.73-.54-21.79 6.24s-33.62 5-35.12-23.2c-.82-15.39-8.36 3.92-10.53 9.83a14.87 14.87 0 0 0-.82 3.58c-1.42 13.59 2.64 22 12.08 28.14 11.34 7.38 28.3 7.75 44.78 1.05a20.94 20.94 0 0 0 13.25-19.37c-.01-2.65-.56-4.88-1.85-6.27ZM2369.72 839.79s5.6-21.21-4-36.41-36.6-31.24-58-10.77c0 0-13.88 15.93 6.76 31s23.16 1.23 27.95 18.18 19.05 14.19 19.69 17.84Z" transform="translate(-105.56 -178.25)"/><path fill="#a69400" d="m2175.18 927.34 8.35 44.31 28.06-42.45 11.9-179.06h-11.88l-36.43 177.2z"/><path fill="#fff" d="M2400 1198.58s-55 18.94-60 32.75 49.5 1.7 72.15-25.22Z" transform="translate(-105.56 -178.25)"/><path fill="#fdd699" d="M2395.83 1193.55c5.08 8.31 10.45 16.54 15.42 24.28 139.1-109.4 130.51-175.58-20.45-291.14-47.09-36-57.38 15.43-19.48 40.31 125.16 82.14 144.87 140.09 24.51 226.55Z" transform="translate(-105.56 -178.25)"/><path fill="#2e1a3d" d="M2276.42 849.62s13.77-5 18.32-1.85 4.69 2.42 7.88 4.11 10.3 10.33 9.93 17.72-4.16 7.33-5.69 3.25-10.85-12.5-10.63-17c0 0-9-.75-12.91-2a17 17 0 0 0-8.52 0s-3.03-2.85 1.62-4.23Z" transform="translate(-105.56 -178.25)"/><path fill="#fff" d="M1412.81 804.73s2.31-53.35 13.17-61.28 14.41 43.09-3.36 70Z" transform="translate(-105.56 -178.25)"/><path fill="#59525e" d="M1409.33 797.41c8.66 1.39 17.38 2.53 25.7 3.77-26.26 146.07-88.79 190.26-231.65 141.22-21.85-7.5-18.63-12.19-10.63-28.49-2.34-2.31-2.43-2.2 0 0 8-16.3 12.06-17 31.32-9.54 125.93 48.63 149.12 9.05 185.26-106.96Z" transform="translate(-105.56 -178.25)"/><path fill="#bcf0f2" d="M1321.89 1202.76c-15-2-34.23-2.86-58.69-1.85-36 1.54-56.68 7-70.95 12.67q-7.17-17.63-13-34.48c-1.41-4-2.73-8-4-12q-3.16-9.67-5.85-19c-1.19-4.12-2.33-8.2-3.39-12.23-2.45-9.15-4.59-18.08-6.48-26.91-.88-4.18-1.7-8.36-2.48-12.48a520.684 520.684 0 0 1-4.75-30.05c-.53-4.24-1-8.42-1.45-12.61a509.3 509.3 0 0 1-1.85-78.52 283 283 0 0 1 4.65-39.14c6.6-34.08 46.87-49.16 74.38-28l5.94 4.56a52.37 52.37 0 0 1 19.71 49.57c-3.3 22.1-1 54.19 14 103.86 1.26 4.09 2.58 8.27 4 12.61 2 6.07 4.15 12.42 6.48 19 1.41 4 2.89 8 4.43 12.13 2.73 7.32 5.66 14.93 8.86 22.85 1.57 3.93 3.21 7.92 4.9 12 1.73 4.24 3.58 8.61 5.47 13 1.67 3.87 3.36 7.8 5.12 11.82q6.9 15.85 14.95 33.2Z" transform="translate(-105.56 -178.25)"/><path fill="#89cbb3" d="M1321.89 1202.76c-15-2-34.23-2.86-58.69-1.85-36 1.54-56.68 7-70.95 12.67q-7.17-17.63-13-34.48c-1.41-4-2.73-8-4-12q-3.16-9.67-5.85-19c-1.19-4.12-2.33-8.2-3.39-12.23-2.45-9.15-4.59-18.08-6.48-26.91-.88-4.18-1.7-8.36-2.48-12.48a520.684 520.684 0 0 1-4.75-30.05c-.53-4.24-1-8.42-1.45-12.61a509.3 509.3 0 0 1-1.85-78.52 283 283 0 0 1 4.65-39.14c6.6-34.08 46.87-49.16 74.38-28l5.94 4.56a52.37 52.37 0 0 1 19.71 49.57c-3.3 22.1-1 54.19 14 103.86 1.26 4.09 2.58 8.27 4 12.61 2 6.07 4.15 12.42 6.48 19 1.41 4 2.89 8 4.43 12.13 2.73 7.32 5.66 14.93 8.86 22.85 1.57 3.93 3.21 7.92 4.9 12 1.73 4.24 3.58 8.61 5.47 13 1.67 3.87 3.36 7.8 5.12 11.82q6.9 15.85 14.95 33.2Z" transform="translate(-105.56 -178.25)"/><path fill="#fff" d="M1235 847c-10.75 29.43-40 45.8-57.95 39.23s-17.93-33.59-7.18-63 30.8-39.08 48.78-32.51 27.13 26.84 16.35 56.28Z" transform="translate(-105.56 -178.25)"/><path fill="#fff" d="m1185.7 850.92 32.75-3.2c.44 4.48 3.87 47.18 2.21 63.27-1.2 5-9.37 7.23-18.24 5.08-8-1.93-13.75-6.78-14-11.35.98-9.65-1.2-38.13-2.72-53.8Z" transform="translate(-105.56 -178.25)"/><path fill="#2e1a3d" d="M1246.15 829.81s.67-21.12-11.59-33.32-41.11-21.4-56.78 2.44c0 0-9.58 18 13.06 27.68s22-3.85 30.16 11 21 9.2 22.34 12.49Z" transform="translate(-105.56 -178.25)"/><path fill="#fff" d="M1246.35 854.19c-2.5 6.85-12.5 13.13-17.46 11.31s-4.17-7.82-1.67-14.67 8.86-11.79 13.82-10 7.81 6.51 5.31 13.36Z" transform="translate(-105.56 -178.25)"/><path fill="#2e1a3d" d="M1228.24 860.57s-6.31-3.2-12.28 5.25-13.21 15.13-22.95 14-11.72-3.34-19.57-4.32-9.87-22.5-9.44-26.5c1.07-9.79-3.25-2.14-5.11 4.16s-8.64 24.72 7.07 34.51 21.61 11 32.61 5.86 27.49-11.29 29.67-32.96Z" transform="translate(-105.56 -178.25)"/><path fill="#6e6675" d="M1293.42 1222.77c-9.32 15.24-89.34 36.33-97.31 29.66-3.62-3-16-30.23-28.79-68.86-2.61-8.06-5.31-16.64-7.93-25.57-2.13-7.32-4.23-14.9-6.23-22.65-2.22-8.45-4.31-17.16-6.23-26-6.53-29.66-11.37-61.07-12.46-91.17-3.88-105.63 45.78-122.87 54.19-119.78 0 0-18.12 7.71-5.88 15.46s40.46 13.5 42.47 35.41 3.92 111 15.51 145.44c.52 1.57 1.13 3.18 1.79 4.92 2.7 6.88 6.49 15 10.89 23.87 2.57 5.23 5.36 10.71 8.19 16.25 3.92 7.71 8 15.59 11.85 23.3 13.52 26.95 24.78 51.83 19.94 59.72Z" transform="translate(-105.56 -178.25)"/><path fill="#6e6675" d="M1317.42 1213.58c-8.23 1-20.34-22.82-31.93-51-3.27-7.93-6.53-16.2-9.63-24.39-2-5.44-4.05-10.85-5.92-16.07-3.35-9.06-6.4-17.55-9-24.78-3.18-8.71-5.71-15.55-7.32-19.25-9-20.65-11.5-119.83-10-136.55s-22.52-37.9-22.52-37.9c7.67-1.7 27.92 13.81 32.49 23.43 9 18.9 8.93 71.26 14.85 118.13 1.87 14.81 6.4 31.41 12.07 47.74 2.87 8.36 6.05 16.68 9.36 24.65 2 5 4.14 9.8 6.23 14.37 3.92 8.8 7.84 16.94 11.41 23.87A238 238 0 0 0 1320 1178c9.66 14.28 15.46 33.44-2.58 35.58Z" transform="translate(-105.56 -178.25)"/><path fill="#fff" d="M1305.49 1109.45s51.74 13.19 57.28 25.45-45.13 5.27-67.86-17.64Z" transform="translate(-105.56 -178.25)"/><path fill="#59525e" d="M1307.58 1104.52c.49 9.77 3.72 18 6.17 25.57-164.9 35.62-285.85-22.73-175.4-185.63 16.89-24.92 58.44.47 28.65 33.46-115.17 127.58 38.44 135 140.58 126.6Z" transform="translate(-105.56 -178.25)"/><path fill="#fff" d="m1933 1361.79-32.06 12c32.32 75.23 64.66 150.29 99.32 215.59 8.42-6 6.53-13.54 14.16-20.53-39.08-70.51-62.52-139.53-81.42-207.06Z" transform="translate(-105.56 -178.25)"/><path fill="#2d334a" d="M2018.85 1568.84s17.73 25.28 54 27.21c0 0 16.51 2.41-3 8.3s-51.88 4.31-63.27-4.39c0 0-2.24 22.15-5.3 16.09s-16.83-33.78-16.83-33.78Z" transform="translate(-105.56 -178.25)"/><path fill="#fff" d="m1910.3 1361.16-34.07 3.45c12.06 81 24.19 161.81 41 233.79 9.68-3.67 9.76-11.43 18.93-16.24-19.75-78.16-24.81-150.88-25.86-221Z" transform="translate(-105.56 -178.25)"/><path fill="#2d334a" d="M1940.51 1583.25s10.7 29 45.28 40.09c0 0 15.35 6.54-5 7.26s-51.26-9.07-60.05-20.38c0 0-7.82 20.85-9.23 14.21s-7.65-37-7.65-37Z" transform="translate(-105.56 -178.25)"/><path fill="#b3b3b3" d="M2071.58 1160.65h257.57v38.61a12 12 0 0 1-12 12h-233.54a12 12 0 0 1-12-12v-38.61h-.03Z"/><path fill="#b3b3b3" d="M2137.46 1191.18h125.8v38.61a12 12 0 0 1-12 12h-101.77a12 12 0 0 1-12-12v-38.61h-.03Z"/><path fill="#8c8691" d="M2188.15 1191.18h24.43v209.8h-24.43z"/><path fill="#8c8691" d="M2361.82 1579.24h-112.73a23.31 23.31 0 0 0-23.31 23.31v18.24h159.34v-18.24a23.31 23.31 0 0 0-23.3-23.31Z" transform="translate(-105.56 -178.25)"/><path fill="#605767" d="M2091.07 1108h218.58a40.28 40.28 0 0 1 40.28 40.28 28.71 28.71 0 0 1-28.71 28.71H2079.5a28.71 28.71 0 0 1-28.71-28.71 40.28 40.28 0 0 1 40.28-40.28Z"/><path fill="#b3b3b3" d="M1521.85 1160.65h257.57v38.61a12 12 0 0 1-12 12h-233.54a12 12 0 0 1-12-12v-38.61h-.03Z"/><path fill="#b3b3b3" d="M1587.74 1191.18h125.8v38.61a12 12 0 0 1-12 12h-101.78a12 12 0 0 1-12-12v-38.61h-.02Z"/><path fill="#8c8691" d="M1638.42 1191.18h24.43v209.8h-24.43z"/><path fill="#8c8691" d="M1812.09 1579.24h-112.72a23.31 23.31 0 0 0-23.31 23.31v18.24h159.34v-18.24a23.31 23.31 0 0 0-23.31-23.31Z" transform="translate(-105.56 -178.25)"/><path fill="#605767" d="M1541.34 1108h218.58a40.28 40.28 0 0 1 40.28 40.28 28.71 28.71 0 0 1-28.7 28.72h-241.73a28.71 28.71 0 0 1-28.71-28.71 40.28 40.28 0 0 1 40.28-40.28Z"/><path fill="#b3b3b3" d="M1059.73 1160.65h257.57v38.61a12 12 0 0 1-12 12h-233.54a12 12 0 0 1-12-12v-38.61h-.03Z"/><path fill="#b3b3b3" d="M1125.62 1191.18h125.8v38.61a12 12 0 0 1-12 12h-101.77a12 12 0 0 1-12-12v-38.61h-.03Z"/><path fill="#8c8691" d="M1176.3 1191.18h24.43v209.8h-24.43z"/><path fill="#8c8691" d="M1350 1579.24h-112.75a23.31 23.31 0 0 0-23.31 23.31v18.24h159.34v-18.24a23.31 23.31 0 0 0-23.28-23.31Z" transform="translate(-105.56 -178.25)"/><path fill="#605767" d="M1079.23 1108h218.58a40.28 40.28 0 0 1 40.28 40.28 28.71 28.71 0 0 1-28.71 28.71h-241.72a28.71 28.71 0 0 1-28.71-28.71 40.28 40.28 0 0 1 40.28-40.28Z"/><path fill="#fff" d="M2175.86 1621.28a10.23 10.23 0 0 0 10-12.26l-14.66-72a10.22 10.22 0 1 0-20 4.08l14.66 72a10.22 10.22 0 0 0 10 8.18Z" transform="translate(-105.56 -178.25)"/><path fill="#2d334a" d="M2188.64 1607.71s6.33 26.27 0 27-97.38 3.49-97.92-.73c-1.82-14.42 72.62-27.73 79.92-26.27s17.17-3.82 18 0ZM2122.08 1374.57c9.58 76.35 21.39 148.81 32.19 209.16a335.2 335.2 0 0 0 33.73-3.33c-15.06-60.7-24.93-131.74-29-205.83Z" transform="translate(-105.56 -178.25)"/><path fill="#fff" d="M2427.25 1621.28a10.23 10.23 0 0 1-10-12.26l14.66-72a10.22 10.22 0 0 1 20 4.08l-14.66 72a10.22 10.22 0 0 1-10 8.18Z" transform="translate(-105.56 -178.25)"/><path fill="#2d334a" d="M2414.46 1607.71s-6.33 26.27 0 27 97.38 3.49 97.92-.73c1.82-14.42-72.62-27.73-79.92-26.27s-17.17-3.82-18 0ZM2481 1374.57c-9.58 76.35-21.39 148.81-32.19 209.16a335.21 335.21 0 0 1-33.73-3.33c15.06-60.7 24.93-131.74 29-205.83Z" transform="translate(-105.56 -178.25)"/><path fill="#fff" d="M1443.7 1625.92a10.23 10.23 0 0 1-12.29-10l-.14-73.49a10.22 10.22 0 1 1 20.44 0l.14 73.49a10.22 10.22 0 0 1-8.15 10Z" transform="translate(-105.56 -178.25)"/><path fill="#2d334a" d="M1428.45 1615.19s-.9 27 5.44 26.45 96.09-16.19 95.77-20.43c-1.12-14.49-76.72-12.54-83.57-9.64s-17.6-.28-17.64 3.62ZM1446.7 1373.43c6 76.71 9 150.07 10.59 211.36a335.16 335.16 0 0 1-33.71 3.53c2.52-62.49-2.11-134.06-13-207.45Z" transform="translate(-105.56 -178.25)"/><path fill="#fff" d="M1553 1611.44a10.23 10.23 0 0 1-14.89-5.38l-24.36-69.33a10.22 10.22 0 0 1 19.28-6.77l24.36 69.33a10.22 10.22 0 0 1-4.39 12.15Z" transform="translate(-105.56 -178.25)"/><path fill="#2d334a" d="M1535.1 1606.35s8.05 25.8 13.85 23.18 85.38-47 83.67-50.87c-5.83-13.32-76.56 13.45-82.08 18.45s-16.69 5.54-15.44 9.24ZM1472.61 1372.09c31 70.45 58 138.71 79.68 196a335.19 335.19 0 0 1-30.66 14.44c-18.22-59.83-46.2-125.87-80.69-191.56Z" transform="translate(-105.56 -178.25)"/><path fill="#dedede" d="M919.88 983.74H957v482.43h-37.12zM2429.51 983.74h37.12v482.43h-37.12z"/><path fill="#f2f2f2" d="M889.41 983.74h1610.07v332.45H889.41z"/><path fill="#dedede" d="M889.41 983.74h1610.07v45.87H889.41z"/><path fill="#fff" d="M853.62 962.39h1681.65v42.45H853.62zM1305.43 396h11.94v376.43h-11.94z"/><circle cx="1311.4" cy="312.49" r="131.55" fill="#49af8a"/><path fill="#504658" d="M1391.12 441.89v97.71h-32.94v-72.86h-16.75v-24.85ZM1403.13 490.75c0-32.39 18.43-51.09 44.25-51.09s44.25 18.71 44.25 51.09-18.43 51.09-44.25 51.09-44.25-18.71-44.25-51.09Zm55.42 0c0-18.85-4.75-24.71-11.17-24.71s-11.17 5.86-11.17 24.71 4.75 24.71 11.17 24.71 11.17-5.87 11.17-24.71Z" transform="translate(-105.56 -178.25)"/><path fill="#fff" d="M1882.94 494.21h11.94v376.43h-11.94z" transform="rotate(-15 1159.201 994.204)"/><circle cx="1818.59" cy="419.97" r="131.55" fill="#49af8a" transform="rotate(-15 1088.816 731.749)"/><path fill="#504658" d="M1859.59 405.8c8.85 33-7.15 58-38.3 66.33-11.19 3-22.84 3.23-31.25.42l5.5-25.32c6.58 2.43 12.53 2 18.46.4 10.79-2.89 16.86-10.44 16.2-21.54-3.82 4.64-9.38 8.15-17.33 10.28-17.26 4.62-35.5-3.06-40.45-21.53-5.42-20.23 8.14-37.59 29.44-43.3 26.97-7.21 49.46 3.38 57.73 34.26Zm-37.41-5.87c-1.59-5.93-6.61-8.49-12.27-7s-8.73 6.24-7.14 12.17 6.65 8.62 12.31 7.11 8.69-6.35 7.1-12.28Z" transform="translate(-105.56 -178.25)"/><path fill="#fff" d="M2071.51 396h11.94v376.43h-11.94z"/><circle cx="2077.48" cy="312.49" r="131.55" fill="#49af8a"/><path fill="#504658" d="M2225.51 507.5c0 17.45-13.4 34.34-44.67 34.34-13.4 0-28.06-2.93-38.53-8.79l11.17-24.29a53 53 0 0 0 26.1 7.12c7.4 0 12.84-2.65 12.84-7.68 0-4.19-2.93-7-14.8-7h-28.34l4.89-59.33h64.91v24.85h-37.83l-.7 9.63h5c28.93.02 39.96 13.84 39.96 31.15Z" transform="translate(-105.56 -178.25)"/><path fill="#fff" d="M1705.64 402.59a29.93 29.93 0 0 0 29.93-29.93 29.93 29.93 0 0 0 29.93 29.93 29.93 29.93 0 0 0-29.93 29.93 29.93 29.93 0 0 0-29.93-29.93Z" transform="translate(-105.56 -178.25)"/></svg>