<svg xmlns="http://www.w3.org/2000/svg" xmlns:xlink="http://www.w3.org/1999/xlink" enable-background="new 0 0 6000 4000" viewBox="0 0 6000 4000"><path fill="#91b9ec" d="M1141.4 2824.8c1.2 27.8 4.8 55.5 6.7 83.3 3.9 90.6 82.8 145.8 134 216.8 7.9 7.9 15.8 23.6 31.5 27.6 7.9 0 7.9-3.9 27.6 15.8 15.8 19.7 39.4 19.7 63.1 35.5 7.9 3.9 23.6-3.9 27.6 0 23.6 31.5 59.1 35.5 90.6 47.3 19.7 7.9 47.3 0 67 7.9 47.3 15.8 98.5 23.6 145.8 23.6 930.1-3.9 1844.4 90.6 2786.4-141.9 47.3-11.8 94.6-15.8 145.8-31.5 19.7-7.9 47.3 3.9 67-7.9 55.2-31.5 114.3-31.5 173.4-63.1 25.5-11.3 55.1-24.6 85.8-35.7-8.7-33.9-22.3-70.5-40.4-110-225.1-489-3224.1-250.5-3811.9-67.7"/><g opacity=".38"><defs><path id="a" d="M998.3 2458.8h4138.2v981.3H998.3z"/></defs><clipPath id="b"><use overflow="visible" xlink:href="#a"/></clipPath><g clip-path="url(#b)"><defs><path id="c" d="M998.3 2458.8h4138.2v981.3H998.3z"/></defs><clipPath id="d"><use overflow="visible" xlink:href="#c"/></clipPath></g></g><path fill="#9bc6ee" d="M4734.5 3101.1c-19.7 11.8-47.3 0-67 7.9-51.2 15.8-98.5 19.7-145.8 31.5-941.9 232.5-1856.3 137.9-2786.4 141.9-47.3 0-98.5-7.9-145.8-23.6-19.7-7.9-47.3 0-67-7.9-31.5-11.8-67-15.8-90.6-47.3-3.9-3.9-19.7 3.9-27.6 0-23.6-15.8-47.3-15.8-63.1-35.5-19.7-19.7-19.7-15.8-27.6-15.8-15.8-3.9-23.6-19.7-31.5-27.6-51.2-70.9-130.1-126.1-134-216.8-1.9-27.8-5.4-55.5-6.7-83.3-40.2 12.5-69.1 24.7-85.1 36.4 0 0-560.9 604.6 1507.9 587.7 1912.3-15.6 2535.9-31.6 2429.5-446.5-30.7 11-60.3 24.3-85.8 35.7-59.1 31.7-118.2 31.7-173.4 63.2"/><g opacity=".38"><defs><path id="e" d="M832.8 2726.8H5168V3645H832.8z"/></defs><clipPath id="f"><use overflow="visible" xlink:href="#e"/></clipPath><g clip-path="url(#f)"><defs><path id="g" d="M832.8 2726.8H5168V3645H832.8z"/></defs><clipPath id="h"><use overflow="visible" xlink:href="#g"/></clipPath></g></g><path fill="#fe0000" d="M2620.8 850.5c-47.8 13.4-80.9 21.9-114.2 28.1-5.9 1.1-11.8 2-17.9 2.4-18.6 1.3-35.5-7.3-49.1-24.6-13.5-17.2-25.1-35.3-36-53.6-15.4-25.9-29.7-52.3-41.1-79.7-9.1-21.9-6.5-40.6 15.4-52.2 37.3-19.7 78.4-35.9 121.2-52.3 27-10.3 55-20.2 84.3-28.6 7.7-2.2 15.4-4.4 23.7-5.4 20.4-2.6 38.1 4.6 52.3 21.5 18.3 21.7 32.2 45.6 45.6 69.4 16.1 28.4 30.7 57.1 40.6 86.6 9.8 29.1 1.8 44.8-25.4 55.7-37.6 15-76.1 26.1-99.4 32.7m-81-50.7c18.1-24.7 36.1-49.3 55-75.3-37.7-7.3-73.6-14.3-109.3-21.2 18.4 32.8 36.1 64.3 54.3 96.5"/><path fill="#292929" d="M3454 385.7c6.9-14.4 15.4-26.7 31.2-35.8 26.3-15.1 52.9-14 72.4 4 16.7 15.4 26.3 34.1 35.1 53 13.3 28.5 28 56.4 34.6 86.4 1.8 8.2 2.6 16.5 1.8 24.9-3.5 34.9-54.5 55.2-92.5 37.7-2.5-1.2-4.9-2.4-7.3-3.5-.7.6-1 .8-1 .9 0 6.2 5 13.2.6 18.1-4.5 5-15 5.4-22.8 7.6-7.8 2.2-16.7 7.7-23.2 5.5-7.1-2.4-7.2-11.2-10-17.3-39.4-84.2-79.2-169.8-120-256.6-3.1-6.6-2.6-9.8 6.4-12.7 12.1-3.8 24.1-8.4 35.6-13.7 9-4.1 11.8-1.8 14.8 4.8 13.3 29.8 27.1 59.3 40.6 88.6 1.2 2.7 2.4 5.4 3.7 8.1m39.6 86c8.1 17.7 16.5 35.2 24.2 52.9 2.6 5.9 7.4 8.8 14.9 9.9 17.2 2.6 30.5-5.7 30.6-19.2 0-2.9-.3-5.8-1.1-8.7-9.9-35.6-26.8-69.3-45.6-102.6-2.6-4.5-6.4-8.8-10.6-12.4-9-7.9-21.4-7-30.2 2-7.8 8.1-10.4 16.9-6.1 26.2 8 17.4 16 34.7 23.9 51.9M3129.4 662.7c-2 6-2.6 10.8-4.9 15.3-7.9 15.4-22.8 22.6-42.6 23.6-12.9.6-23-5-31.1-13.3-6.2-6.4-10.8-13.5-14.6-21-21-41.3-42.2-82.9-63.9-124.8-2.8-5.3-1.9-7.4 4.1-9.2 10.4-3.1 20.6-6.9 30.8-10.9 5-2 7.1-1 9.4 3.5 20.6 41.2 41.4 82 61.9 122.6 2.4 4.8 4.9 9.7 9 13.8 5.1 5.1 11.7 6 17.9 2.6 9.1-4.9 11.6-12.3 7.1-21.2-21.3-42.5-42.8-85.3-64.7-128.4-2.5-4.8-2-6.9 3.8-8.7 11.4-3.6 22.7-7.7 34-12 4.6-1.8 7-1.7 9.4 3 28.1 56.9 56.1 113.2 84 168.8 2.2 4.3 1.1 6-4 7.2-8.9 2.2-17.6 4.7-26.1 7.4-3.8 1.2-5.9.6-7.9-2.4-3.3-4.8-7-9.6-11.6-15.9M3388.1 586.7c-1.9 5.4-3 9.3-4.5 13-7.6 17.9-29.2 30.5-52.8 31.1-18.2.4-30-7.6-39.4-18.8-6.1-7.3-10.4-15.3-14.3-23.4-21.1-43.2-42.1-86.9-63.7-130.7-2.9-5.8-1.7-8.2 5.3-10.3 11.9-3.7 23.7-7.9 35.4-12.5 6.8-2.7 9.7-2 12.5 4 21.5 45.6 43.3 90.6 64.7 135.4 2.2 4.6 4.4 9.2 8.5 13 5.8 5.4 13.4 6.2 20.7 2.3 10.6-5.7 14-14.2 9.5-23.7-22-46.2-44-92.9-66.7-139.8-2.9-5.9-1.9-8.4 5.6-10.7 12.6-3.9 25.1-8.4 37.5-13.2 6.8-2.7 9.7-2 12.4 3.9 25 54 50.3 107.4 75.1 160.3 3.8 8 7.2 16.1 11.4 24 2.4 4.4.9 6.1-4.7 7.5-10.1 2.5-20.2 5.3-29.8 8.6-6 2.1-8.6.3-11.1-3.5-3.4-5.1-7-10-11.6-16.5M2877.3 666.3c-8.4-14.4-16.1-29-20.8-44.6-11.5-37.5 7.1-55 42.2-63.7 26.2-6.5 46.5 1 64.8 25.5 22.2 29.7 38.6 61.6 48.5 94.8 10 33.4-7.1 49.7-43.5 57.1-30.2 6.1-51.1-3.5-69.2-30-2.2-3.2-4.6-6.3-6.4-9.6-5.3-9.8-10.4-19.6-15.6-29.5m72.3-20.4c-6.2-12-11.2-22.1-16.6-32-4.5-8.1-9-16.2-16.4-22.8-4.4-3.8-9.4-5.4-15-3.5-5.6 1.9-7.7 5.7-7.6 10.9.1 3.7.9 7.3 2.4 10.9 10.9 26.4 25.7 51.4 38.9 76.7 3.3 6.4 7.4 12.5 13.1 17.7 4.3 3.9 9.1 5.6 14.8 4 6-1.6 8.6-5.3 8.4-10.7-.1-4.2-1.5-8.4-3-12.6-5.3-13.8-13.4-27-19-38.6M2806.3 651.4c-4.1-13.8-8.4-27.6-12.3-41.6-6.6-23.5-13.1-47.2-19.7-71.1-.6-2.2-1.9-4.5 1.6-5.8 11.7-4.3 23.4-8.9 36-13.7 2.9 13.8 5.7 26.9 8.4 40 8.6 41.3 17 82 25.2 122.1.8 3.7 2.1 7.3 4 10.8 10.6 19.8 20.8 39.6 31.5 59.1 2.6 4.7 1.5 6.2-3.4 7.4-9 2.2-17.7 4.7-26.2 7.5-4.1 1.3-6.1.7-8.2-3.4-9.9-19.1-20.4-38-30.3-57.2-5.3-10.3-14.4-18.2-22.2-26.8-32.5-36-65.2-71.9-98-107.6-3.8-4.2-3.4-5.4 1.2-7 8.6-2.9 17-6.2 25.4-9.7 3.9-1.6 6.2-1.5 9.4 2.5 25.4 31.7 51.9 62.7 77.6 94.5M3760.7 403.1c-16.3 5.1-32.5 10.2-48.6 15.2-4.1 1.3-8.2 2.3-6 6.7 7 13.8 11.9 28.4 21.7 41.1 7.1 9.2 15.7 11.6 27.9 8.3 13-3.5 19-10.2 18.1-21.1-.5-6.5-1.8-12.9-4.8-18.9-1.8-3.8-.2-5.4 5.3-6.8 15.7-3.7 31.5-7.6 47.3-12.1 6.9-2 8.7-.6 10.8 3.7 21.9 46.4-11.5 76-69.8 90.5-45.7 11.3-74.9 3.8-96.7-25.2-28.5-37.9-47.3-79.5-55.2-124.6-6.6-37.7 13.9-65.1 78.9-82.9 45.9-12.6 74.3-1.7 95.7 33.6 13.4 22.1 21.3 46 32.1 68.7 2.1 4.5-.1 6.1-5.8 7.8-17.1 5.3-34.1 10.7-50.9 16m-80-36c2.9 6.6 5.9 13.1 8.6 19.8 1.3 3.1 2.6 4.7 7.8 2.9 12.6-4.3 25.4-8.4 38.4-12.4 3.5-1.1 5.3-2.3 3.9-5.2-8-16.6-13.6-34.1-26.1-49-7.5-9-16-10.7-27.7-6.4-11.4 4.2-15.6 10.8-14.1 21.7 1.5 10 6 19.1 9.2 28.6"/><path fill="#292929" d="M3164 554.7c-16.8-34-33.8-68.1-50.5-102.6-2.4-5-4.5-6.2-10.4-3.7-11.1 4.6-22.7 8.3-33.7 12.7-4.3 1.7-6.7 1.8-8.7-2.7-3.6-8.1-7.7-16.1-11.9-24.1-1.9-3.5-.9-5 3-6.5 43.7-16.5 88.6-33.7 134.8-51.4 3.8-1.5 5.8-1.2 7.4 2.3 4.1 9 8.4 18 13 26.8 1.7 3.4.9 4.8-3.1 6.2-12.2 4.3-24.1 9.2-36.3 13.1-7.2 2.3-8.4 4.6-5.3 10.8 34 68.8 67 137 100.2 204.1 3.4 6.9 2 9.3-6.4 11.2-11.1 2.5-21.8 5.8-32.2 9.2-5.4 1.8-7.6.9-9.9-3.7-16.4-33.9-33.2-67.7-50-101.7"/><path fill="#fefefe" d="M2539.8 799.8c-18.2-32.3-35.9-63.8-54.3-96.5 35.7 6.9 71.6 13.9 109.3 21.2-18.9 26-36.9 50.6-55 75.3"/><defs><path id="i" d="M3769.9 1057.1c-13.8 18 10.3 81.4-30.8 55.2-41.1-26.2-38.7 71.8.7 85.9 18.6 6.7 24.2 3 32.4-.7 9.2-4.1 21.8-8.3 59.8 2.2 71.9 19.9 147 147.8 99.9 207-47.1 59.2-297.3-155.7-297.3-155.7s-220.1 70.2-158.8 140.5c293.3 264.7 488.4 144.9 516.5 77.8 28.1-67.1 10.3-193.7-87-262.9-97.3-69.3-87.5-44.7-107.5-67.7s-7.3-38.1.4-69.1c4.3-17.4-.8-24.9-8.5-24.9-6.1 0-13.7 4.6-19.8 12.4"/></defs><clipPath id="j"><use overflow="visible" xlink:href="#i"/></clipPath><linearGradient id="k" x1="1828.628" x2="1832.569" y1="2785.19" y2="2785.19" gradientTransform="rotate(180 127130.25 191258.281) scale(136.8546)" gradientUnits="userSpaceOnUse"><stop offset="0" stop-color="#ffc7d0"/><stop offset="1" stop-color="#e65e75"/></linearGradient><path fill="url(#k)" d="M3414.5 1044.7h605.9v611.5h-605.9z" clip-path="url(#j)"/><defs><path id="l" d="M2565.5 1041.6c16.5 30.1 33.1 42.3 20.5 71.6-12.6 29.3-190.1 164.1-93.9 349.5 44.2 77.9 223.2 201.3 516.5-83.8 61.3-75.7-114.6-133.7-114.6-133.7S2636.3 1474 2563.7 1400c-62.4-63.7-32.3-190.8 7-214.2 35.3-21 48.3-19.3 58.3-17.7 8.3 1.4 14.7 2.7 30-8.7 33.9-25.3 7.7-127.6-24.2-89.3-32 38.3-27.1-34-45.7-49-6.6-5.3-13.5-8-19-8-10-.1-15.2 9.1-4.6 28.5"/></defs><clipPath id="m"><use overflow="visible" xlink:href="#l"/></clipPath><linearGradient id="n" x1="1825.171" x2="1829.112" y1="2785.109" y2="2785.109" gradientTransform="matrix(141.5704 0 0 -141.5704 -255926.531 395627.375)" gradientUnits="userSpaceOnUse"><stop offset="0" stop-color="#ffc7d0"/><stop offset="1" stop-color="#e65e75"/></linearGradient><path fill="url(#n)" d="M2395.8 1013h674.1v651h-674.1z" clip-path="url(#m)"/><path fill="#635cd6" d="M2782.3 1297.5c-43.7 47.9 37.3 221.1 86.5 232.5 49.2 11.4 100.1-96.3 111.7-86.9 11.6 9.4-289.1 879.2-251.3 1018.7 37.8 139.5 1024 358.7 1058.9 198.9 34.9-159.8-320.1-1258.8-299.3-1230 19.6 27.1 39.6 60.6 60.6 57 21-3.6 172.6-186.9 152.5-218.6-20-31.7-214.9-141.4-397.6-155.9-182.7-14.5-284.4 26.1-330.9 55.2-46.5 28.8-147.3 81.2-191.1 129.1"/><g opacity=".9"><defs><path id="o" d="M2562.9 945.4h1391.2v1935H2562.9z"/></defs><clipPath id="p"><use overflow="visible" xlink:href="#o"/></clipPath><g clip-path="url(#p)"><defs><path id="q" d="M2562.9 945.4h1391.2v1935H2562.9z"/></defs><clipPath id="r"><use overflow="visible" xlink:href="#q"/></clipPath></g></g><g opacity=".9"><defs><path id="s" d="M2562.9 945.4h1391.2v1935H2562.9z"/></defs><clipPath id="t"><use overflow="visible" xlink:href="#s"/></clipPath><g clip-path="url(#t)"><defs><path id="u" d="M2562.9 945.4h1391.2v1935H2562.9z"/></defs><clipPath id="v"><use overflow="visible" xlink:href="#u"/></clipPath></g></g><path fill="#ffc261" d="M2163.4 1561.5H3001v1123.7h-837.6z"/><path fill="#4a627c" d="M2224.3 1616h715.8v1014.8h-715.8z"/><g opacity=".38"><defs><path id="w" d="M2082.1 1473.5h1001V2774h-1001z"/></defs><clipPath id="x"><use overflow="visible" xlink:href="#w"/></clipPath><g clip-path="url(#x)"><defs><path id="y" d="M2082.1 1473.5h1001V2774h-1001z"/></defs><clipPath id="z"><use overflow="visible" xlink:href="#y"/></clipPath></g></g><path fill="#fbe486" d="M2714.2 2236.8h-264c-51.2 0-92.7-41.5-92.7-92.7v-123.7c0-51.2 41.5-92.7 92.7-92.7h264c51.2 0 92.7 41.5 92.7 92.7v123.7c0 51.2-41.5 92.7-92.7 92.7"/><path fill="#ffa730" d="m2495.5 2201.1 206-118.9-206-119z"/><path fill="#ffd08c" d="M2435.1 2393.1h294.2v26.3h-294.2zM2536.5 2437.2h91.2v9.5h-91.2zM2322.7 2493h518.9v19.1h-518.9z"/><path fill="#d12d34" d="M2390.4 2461.7H2339c-2.8 0-5-2.2-5-5V2439c0-2.8 2.2-5 5-5h51.3c2.8 0 5 2.2 5 5v17.7c0 2.7-2.2 5-4.9 5"/><path fill="#9696ed" d="M2835.4 2461.7h-49c-3.4 0-6.2-2.8-6.2-6.2v-29.9c0-3.4 2.8-6.2 6.2-6.2h49c3.4 0 6.2 2.8 6.2 6.2v29.9c0 3.4-2.8 6.2-6.2 6.2"/><defs><path id="A" d="M4439.8 1310.2c7.5 49.6-70.1 275.4-153.4 305.4-83.3 29.9-128.5 94.4-124.4 149.8 4.1 55.4 18.1 75.2 18.1 75.2s-47.3-50.3-110.3 26.1 74.6 128.4-13.1 215.8c-87.7 87.3-206.9-19.7-209.2 161.2-2.3 180.9 310.3 227.4 468.1 51.8 157.8-175.6 338-333.5 351.3-462.2 7.3-71-25.9-70.8-58.7-70.6-26.6.1-53 .3-56.8-37.9-8.6-85.1 83.1-391.1-13.2-488.8-26-26.4-45.7-36.7-60.5-36.7-39.7-.3-43.3 74.7-37.9 110.9"/></defs><clipPath id="B"><use overflow="visible" xlink:href="#A"/></clipPath><linearGradient id="C" x1="1826.708" x2="1830.649" y1="2778.392" y2="2778.392" gradientTransform="scale(-177.5837 177.5837) rotate(-32.542 -3838.903 4570.584)" gradientUnits="userSpaceOnUse"><stop offset="0" stop-color="#b6f2f0"/><stop offset=".304" stop-color="#b6f2f0"/><stop offset=".406" stop-color="#90dbd9"/><stop offset=".522" stop-color="#6dc6c4"/><stop offset=".639" stop-color="#52b5b4"/><stop offset=".757" stop-color="#3ea9a8"/><stop offset=".876" stop-color="#33a2a1"/><stop offset="1" stop-color="#2fa09f"/></linearGradient><path fill="url(#C)" d="m4434.4 2846.8-1165.9-743.9 816.6-1279.8 1165.9 744z" clip-path="url(#B)"/><g opacity=".38"><defs><path id="D" d="M3701.9 1055.8h1111.4v1493.6H3701.9z"/></defs><clipPath id="E"><use overflow="visible" xlink:href="#D"/></clipPath><g clip-path="url(#E)"><defs><path id="F" d="M3701.9 1055.8h1111.4v1493.6H3701.9z"/></defs><clipPath id="G"><use overflow="visible" xlink:href="#F"/></clipPath></g></g><defs><path id="H" d="M4439.8 1310.2c7.5 49.6-70.1 275.4-153.4 305.4-83.3 29.9-128.5 94.4-124.4 149.8 4.1 55.4 18.1 75.2 18.1 75.2s-47.3-50.3-110.3 26.1 74.6 128.4-13.1 215.8c-87.7 87.3-206.9-19.7-209.2 161.2-2.3 180.9 310.3 227.4 468.1 51.8 157.8-175.6 338-333.5 351.3-462.2 7.3-71-25.9-70.8-58.7-70.6-26.6.1-53 .3-56.8-37.9-8.6-85.1 83.1-391.1-13.2-488.8-26-26.4-45.7-36.7-60.5-36.7-39.7-.3-43.3 74.7-37.9 110.9"/></defs><clipPath id="I"><use overflow="visible" xlink:href="#H"/></clipPath><path fill="#2d65af" d="M4000.3 2277.9c71.9 5.7 127-56.5 167.9-107 41.8-51.5 80.2-105.7 115.2-162 35.8-57.6 68.1-117.3 96.7-178.7 28.9-62 54.3-125.6 75.9-190.5 21.9-65.8 40.1-132.8 54.3-200.7 1.8-8.4 3.4-16.8 5.1-25.2.7-3.7-5-5.3-5.7-1.6-13 67-29.9 133.3-50.4 198.4-20.5 64.8-44.6 128.5-72.4 190.6-27.3 61-58.1 120.5-92.3 177.9-33.8 56.7-70.9 111.4-111.4 163.5-21 27.1-42.5 54.3-67.4 77.9-25.1 23.9-55.3 44.8-90.1 50.5-8.4 1.4-16.9 1.7-25.4 1-3.8-.3-3.8 5.6 0 5.9" clip-path="url(#I)"/><path fill="#2d65af" d="M4476.6 1833.4c-23.7 20-46.6 41-68.4 63-10.8 10.9-20.8 22.5-31.6 33.3-3.2 3.2-6 5-10.7 4.8-3.9-.1-7.9-1-11.7-1.6-8.2-1.1-16.3-2.3-24.5-3.4-3.7-.5-5.3 5.2-1.6 5.7 8.8 1.2 17.6 2.4 26.4 3.7 6.1.8 13 2.9 18.9.3 6.7-2.9 11.6-9.9 16.4-15.2 5.7-6.1 11.5-12.2 17.3-18.2 23.4-24 48-46.8 73.6-68.3 3-2.3-1.2-6.5-4.1-4.1M4269.1 2026.2c1-14.5-3-29.3-4.5-43.7-1.6-15.3-2.5-30.6-2.7-46-.4-30.9 2.2-61.9 7.6-92.3.7-3.7-5-5.3-5.7-1.6-5.4 30.4-8.1 61.2-7.8 92 .1 15.4.9 30.7 2.5 46 .7 7.1 1.6 14.2 2.6 21.2 1.2 8.1 2.7 16.1 2.1 24.3-.2 3.8 5.7 3.8 5.9.1M4360.3 2049c-26.5 10.5-52 23.5-75.9 38.9-6.1 3.9-12.1 8-18 12.2-5.8 4.2-11.5 9-18.2 11.8-12.6 5.4-26.8-.3-39.5 5.7-3.4 1.6-.4 6.7 3 5.1 12.3-5.8 26.6 0 39.2-5.5 6.2-2.7 11.6-7 17-11 5.9-4.2 11.9-8.4 18-12.3 24-15.6 49.4-28.8 76.1-39.3 3.3-1.3 1.8-7-1.7-5.6M4137.6 2167.8c5.9-51 22.7-99.9 39.4-148.2 1.2-3.6-4.4-5.1-5.7-1.6-16.9 48.9-33.7 98.1-39.6 149.7-.4 3.8 5.5 3.8 5.9.1M4253.5 2249.7c-19.9 3.7-39.4 9.3-58.3 16.6-18.4 7.1-37 15.4-57 15.9-3.8.1-3.8 6 0 5.9 20-.5 38.5-8.3 56.9-15.4 19.5-7.5 39.4-13.4 59.9-17.2 3.8-.8 2.2-6.4-1.5-5.8M4404.5 1720.9c-5.9-3.7-6.4-14.7-7.6-20.9-1.7-9-3-18.1-4-27.2-1.9-17.7-2.5-35.4-1.9-53.2.1-3.8-5.8-3.8-5.9 0-.7 20.3.2 40.6 2.8 60.7 1.2 9.6 2.8 19.2 4.8 28.6 1.4 6.4 2.9 13.3 8.8 17 3.3 2.1 6.2-3 3-5" clip-path="url(#I)"/><path fill="#80dbda" d="M4505.6 1009.8c11.1-24.2 6.8-103.8 35.5-112.6 22-6.7 31.2 21.7 35.2 38.4 31.7 86.9-107.2 160.6-70.7 74.2"/><defs><path id="J" d="M4439.8 1310.2c7.5 49.6-70.1 275.4-153.4 305.4-83.3 29.9-128.5 94.4-124.4 149.8 4.1 55.4 18.1 75.2 18.1 75.2s-47.3-50.3-110.3 26.1 74.6 128.4-13.1 215.8c-87.7 87.3-206.9-19.7-209.2 161.2-2.3 180.9 310.3 227.4 468.1 51.8 157.8-175.6 338-333.5 351.3-462.2 7.3-71-25.9-70.8-58.7-70.6-26.6.1-53 .3-56.8-37.9-8.6-85.1 83.1-391.1-13.2-488.8-26-26.4-45.7-36.7-60.5-36.7-39.7-.3-43.3 74.7-37.9 110.9"/></defs><clipPath id="K"><use overflow="visible" xlink:href="#J"/></clipPath><path fill="#2d65af" d="M4000.3 2277.9c71.9 5.7 127-56.5 167.9-107 41.8-51.5 80.2-105.7 115.2-162 35.8-57.6 68.1-117.3 96.7-178.7 28.9-62 54.3-125.6 75.9-190.5 21.9-65.8 40.1-132.8 54.3-200.7 1.8-8.4 3.4-16.8 5.1-25.2.7-3.7-5-5.3-5.7-1.6-13 67-29.9 133.3-50.4 198.4-20.5 64.8-44.6 128.5-72.4 190.6-27.3 61-58.1 120.5-92.3 177.9-33.8 56.7-70.9 111.4-111.4 163.5-21 27.1-42.5 54.3-67.4 77.9-25.1 23.9-55.3 44.8-90.1 50.5-8.4 1.4-16.9 1.7-25.4 1-3.8-.3-3.8 5.6 0 5.9" clip-path="url(#K)"/><path fill="#2d65af" d="M4476.6 1833.4c-23.7 20-46.6 41-68.4 63-10.8 10.9-20.8 22.5-31.6 33.3-3.2 3.2-6 5-10.7 4.8-3.9-.1-7.9-1-11.7-1.6-8.2-1.1-16.3-2.3-24.5-3.4-3.7-.5-5.3 5.2-1.6 5.7 8.8 1.2 17.6 2.4 26.4 3.7 6.1.8 13 2.9 18.9.3 6.7-2.9 11.6-9.9 16.4-15.2 5.7-6.1 11.5-12.2 17.3-18.2 23.4-24 48-46.8 73.6-68.3 3-2.3-1.2-6.5-4.1-4.1M4269.1 2026.2c1-14.5-3-29.3-4.5-43.7-1.6-15.3-2.5-30.6-2.7-46-.4-30.9 2.2-61.9 7.6-92.3.7-3.7-5-5.3-5.7-1.6-5.4 30.4-8.1 61.2-7.8 92 .1 15.4.9 30.7 2.5 46 .7 7.1 1.6 14.2 2.6 21.2 1.2 8.1 2.7 16.1 2.1 24.3-.2 3.8 5.7 3.8 5.9.1M4360.3 2049c-26.5 10.5-52 23.5-75.9 38.9-6.1 3.9-12.1 8-18 12.2-5.8 4.2-11.5 9-18.2 11.8-12.6 5.4-26.8-.3-39.5 5.7-3.4 1.6-.4 6.7 3 5.1 12.3-5.8 26.6 0 39.2-5.5 6.2-2.7 11.6-7 17-11 5.9-4.2 11.9-8.4 18-12.3 24-15.6 49.4-28.8 76.1-39.3 3.3-1.3 1.8-7-1.7-5.6M4137.6 2167.8c5.9-51 22.7-99.9 39.4-148.2 1.2-3.6-4.4-5.1-5.7-1.6-16.9 48.9-33.7 98.1-39.6 149.7-.4 3.8 5.5 3.8 5.9.1M4253.5 2249.7c-19.9 3.7-39.4 9.3-58.3 16.6-18.4 7.1-37 15.4-57 15.9-3.8.1-3.8 6 0 5.9 20-.5 38.5-8.3 56.9-15.4 19.5-7.5 39.4-13.4 59.9-17.2 3.8-.8 2.2-6.4-1.5-5.8M4404.5 1720.9c-5.9-3.7-6.4-14.7-7.6-20.9-1.7-9-3-18.1-4-27.2-1.9-17.7-2.5-35.4-1.9-53.2.1-3.8-5.8-3.8-5.9 0-.7 20.3.2 40.6 2.8 60.7 1.2 9.6 2.8 19.2 4.8 28.6 1.4 6.4 2.9 13.3 8.8 17 3.3 2.1 6.2-3 3-5" clip-path="url(#K)"/><path fill="#6f93c9" d="m4343 1367.4-163.2-91.7-185.4 283.7 110.9 80.3 237.7-272.3zm-338.4 196.5c-4.9-3.5-6.3-10.4-3-15.5s10-6.5 15-3.1l152.4-227.8c-5.6-4.4-6.2-13.6-1-21.7 5.7-8.7 16.1-12.8 23.2-8.8 6.7 3.7 7.9 13.2 3.1 21.6l103.2 59c.3-.4.5-.7.8-1.1 7.1-8.6 19.2-12.2 27.1-7.8 7.9 4.4 8.3 15 .9 23.6-6.4 7.4-16.5 10.8-24 8.5l-191 224c4.6 4 5.3 10.5 1.3 15.1-4.1 4.8-11.8 5.5-17.1 1.7-5.3-3.8-6.4-10.7-2.4-15.6.2-.2.3-.4.5-.5l-74.5-53.5c-3.6 4.4-9.8 5.3-14.5 1.9"/><path fill="#fff" d="M4110.3 1614.1c.3.2.7.5 1 .7l191-224c-1-.3-2-.7-2.9-1.2-7.2-4.1-8-13.7-2-21.9l-103.2-59-.9 1.5c-5.8 8.6-16.1 12.2-23 8.3-.5-.3-.9-.6-1.3-.9l-152.4 227.8c.1 0 .1.1.2.1 5.1 3.6 6.4 10.7 2.9 15.8-.2.3-.4.6-.6.8l74.5 53.5c4.2-4.5 11.5-5.2 16.7-1.5m-85.3-59.9 159.3-232.2 103.9 60.2-187.7 225.8-75.5-53.8z"/><path fill="#aecff1" d="M4184.4 1322 4025 1554.2l75.5 53.8 187.7-225.8-103.8-60.2zm-92.8 239.6c-4.1 5.4-11.8 6.6-17.2 2.9-5.4-3.7-6.6-11.1-2.6-16.5 4-5.5 11.7-6.9 17.2-3.1 5.7 3.8 6.8 11.3 2.6 16.7m83.4-58.3c-16.4 20.3-44.9 25.7-64 13-18.8-12.5-22.6-38.7-8.3-59.5 15.1-21.8 44.5-29.9 65.4-16.9 21.3 13.2 24.2 42.1 6.9 63.4m42.3-106c-5.9 7.7-16.1 10.5-22.9 6.5-6.7-4-7.7-13.5-2-21.2 5.7-7.9 16-11 23-6.9 7.1 4 7.9 13.8 1.9 21.6"/><path fill="#6f93c9" d="M4117.9 1480.1c.6 1.1 1.4 2 2.4 2.7 1.6 1 3.5 1.4 5.4 1.2 2-.2 4-1 5.9-2.3.6-.4 1.1-.9 1.7-1.4l-15-9.8c-.7 1.3-1.1 2.7-1.3 4-.3 2.1 0 4 .9 5.6M4158.6 1480.6c-.6-1.1-1.4-2-2.5-2.8-1.7-1.1-3.6-1.4-5.7-1.2-2 .2-4.2 1-6.1 2.4-.6.4-1.2.9-1.7 1.4l15.3 10c.7-1.3 1.2-2.7 1.4-4 .4-2.1.1-4.1-.7-5.8"/><path fill="#6f93c9" d="M4102.8 1456.8c-14.4 20.8-10.5 47 8.3 59.5 19.1 12.7 47.6 7.3 64-13 17.2-21.3 14.3-50.2-6.9-63.4-21-12.9-50.4-4.8-65.4 16.9m41.6 13.7c.5-.2 1-.5 1.5-.7 3.1-1.3 6.4-1.9 9.4-1.6 2.4.2 4.6.9 6.5 2.2 2.9 1.9 4.8 4.7 5.6 8 .8 3.3.6 7.1-.8 10.8-.6 1.7-1.5 3.5-2.6 5.2l6.8 4.4-3.2 4-6.7-4.4c-2.4 2.5-5.1 4.4-8 5.7-3.5 1.6-7.2 2.3-10.6 1.9-2.3-.3-4.4-1-6.3-2.2l2.7-3.5 2.7-3.5c1.6 1.1 3.5 1.5 5.5 1.3 2-.2 4.1-1 6-2.2.6-.4 1.2-.9 1.7-1.4l-15.5-10.1c-2.3 2.5-5 4.5-7.7 5.8-.5.2-.9.4-1.4.6-3 1.2-6.1 1.7-9 1.4-2.2-.2-4.3-.9-6.1-2.2-2.7-1.8-4.6-4.5-5.4-7.7-.8-3.2-.7-6.8.4-10.4.5-1.7 1.3-3.4 2.3-5.1l-6.4-4.2 2.9-4 6.5 4.2c2.2-2.6 4.8-4.6 7.6-6.1 3.5-1.8 7.1-2.6 10.6-2.4 2.3.2 4.5.9 6.4 2.1l-5.5 7.5c-1.6-1-3.6-1.4-5.6-1.2-2 .2-4.1 1.1-5.9 2.4-.6.4-1.1.9-1.7 1.4l15.4 10c2.3-2.5 5-4.6 7.9-6"/><path fill="#2d65af" d="M4144.3 1479c1.9-1.3 4-2.1 6.1-2.4 2.1-.2 4 .2 5.7 1.2 1.1.7 1.9 1.7 2.5 2.8.9 1.6 1.1 3.6.8 5.7-.2 1.3-.7 2.7-1.4 4l6.2 4c1.1-1.7 2-3.4 2.6-5.2 1.3-3.7 1.6-7.5.8-10.8-.8-3.3-2.7-6.2-5.6-8-1.9-1.3-4.2-2-6.5-2.2-3.1-.3-6.3.3-9.4 1.6-.5.2-1 .4-1.5.7-2.8 1.4-5.5 3.4-7.9 6l6.1 3.9c.3-.4.9-.8 1.5-1.3M4153.1 1495.8c-1.9 1.3-4 2-6 2.2-2 .2-3.9-.2-5.6-1.3l-2.7 3.5-2.7 3.5c1.9 1.2 4 2 6.3 2.2 3.4.4 7.1-.3 10.6-1.9 2.8-1.3 5.6-3.2 8-5.7l-6.1-4c-.7.6-1.2 1.1-1.8 1.5M4122.8 1465.1c1.8-1.3 3.9-2.2 5.9-2.4 2-.2 3.9.1 5.6 1.2l5.5-7.5c-1.9-1.2-4.1-1.9-6.4-2.1-3.4-.3-7.1.6-10.6 2.4-2.8 1.4-5.4 3.5-7.6 6.1l6 3.9c.5-.7 1.1-1.2 1.6-1.6M4131.6 1481.7c-1.8 1.3-3.9 2.1-5.9 2.3-2 .2-3.8-.2-5.4-1.2-1.1-.7-1.9-1.6-2.4-2.7-.8-1.6-1.1-3.6-.9-5.6.2-1.3.6-2.7 1.3-4l-5.9-3.9c-1 1.7-1.7 3.4-2.3 5.1-1.1 3.6-1.2 7.3-.4 10.4.8 3.2 2.7 5.9 5.4 7.7 1.8 1.2 3.9 1.9 6.1 2.2 2.9.3 6-.2 9-1.4.5-.2.9-.4 1.4-.6 2.8-1.3 5.4-3.3 7.7-5.8l-6-3.9c-.6.5-1.1 1-1.7 1.4"/><path fill="#2d65af" d="m4115.2 1462.6-6.5-4.2-2.8 4.1 6.4 4.2 6 3.8 14.9 9.8 6.1 4 15.5 10.1 6.1 4 6.7 4.4 3.2-4-6.7-4.4-6.2-4-15.3-10-6.1-3.9-15.3-10z"/><path fill="#6f93c9" d="M4071.9 1548c-3.9 5.4-2.8 12.7 2.6 16.5 5.4 3.7 13.1 2.5 17.2-2.9s3-13-2.5-16.7c-5.6-3.8-13.4-2.3-17.3 3.1M4016.8 1545.5c-.1 0-.1-.1-.2-.1-5-3.4-11.7-2-15 3.1-3.3 5.1-1.9 12 3 15.5 4.7 3.3 10.9 2.5 14.5-1.9.2-.3.4-.5.6-.8 3.5-5.2 2.2-12.3-2.9-15.8M4093.6 1615.6l-.5.5c-4 4.8-2.9 11.8 2.4 15.6 5.3 3.8 13 3.1 17.1-1.7 3.9-4.6 3.3-11.1-1.3-15.1-.3-.3-.6-.5-1-.7-5.2-3.8-12.5-3.1-16.7 1.4M4299.4 1389.6c.9.5 1.9.9 2.9 1.2 7.5 2.3 17.6-1.1 24-8.5 7.4-8.6 7-19.2-.9-23.6-7.9-4.4-20-.8-27.1 7.8-.3.4-.6.7-.8 1.1-6.1 8.3-5.3 17.9 1.9 22M4193.3 1310.2l.9-1.5c4.9-8.4 3.7-17.9-3.1-21.6-7.1-3.9-17.5.1-23.2 8.8-5.2 8-4.6 17.3 1 21.7.4.3.9.6 1.3.9 7 3.9 17.3.2 23.1-8.3M4192.4 1382.6c-5.6 7.7-4.7 17.2 2 21.2 6.8 4.1 17 1.2 22.8-6.5 6-7.8 5.2-17.6-1.8-21.7-6.9-4-17.3-.9-23 7"/><path fill="#ffc261" d="M3414.9 1561.5h837.6v1123.7h-837.6z"/><path fill="#4a627c" d="M3475.8 1616h715.8v1014.8h-715.8z"/><g opacity=".38"><defs><path id="L" d="M3331.4 1473.5h1005V2774h-1005z"/></defs><clipPath id="M"><use overflow="visible" xlink:href="#L"/></clipPath><g clip-path="url(#M)"><defs><path id="N" d="M3331.4 1473.5h1005V2774h-1005z"/></defs><clipPath id="O"><use overflow="visible" xlink:href="#N"/></clipPath></g></g><path fill="#fbe486" d="M3965.7 2236.8h-264c-51.2 0-92.7-41.5-92.7-92.7v-123.7c0-51.2 41.5-92.7 92.7-92.7h264c51.2 0 92.7 41.5 92.7 92.7v123.7c0 51.2-41.5 92.7-92.7 92.7"/><path fill="#ffa730" d="m3747 2201.1 206.1-118.9-206.1-119z"/><path fill="#f7f7f7" d="M3686.6 2393.1h294.2v26.3h-294.2z"/><path fill="#ffd08c" d="M3788.1 2437.2h91.2v9.5h-91.2z"/><path fill="#f7f7f7" d="M3574.3 2493h518.9v19.1h-518.9z"/><path fill="#d12d34" d="M3641.9 2461.7h-51.3c-2.8 0-5-2.2-5-5V2439c0-2.8 2.2-5 5-5h51.3c2.8 0 5 2.2 5 5v17.7c0 2.7-2.2 5-5 5"/><path fill="#9696ed" d="M4087 2461.7h-49c-3.4 0-6.2-2.8-6.2-6.2v-29.9c0-3.4 2.8-6.2 6.2-6.2h49c3.4 0 6.2 2.8 6.2 6.2v29.9c0 3.4-2.8 6.2-6.2 6.2"/><path fill="#6f93c9" d="m1888.3 2014.6-54.9 179.1 315.9 121.7 61.6-208.7-322.6-92.1zm262.8 281.9c-2.8 9.6-12 14.8-20.6 11.6-8.4-3.2-12.9-13.2-10.4-22.6l-256.3-96.6c-2.9 7.3-9.8 11.3-15.8 9-6.5-2.4-9.7-11.1-7.2-19.4 2.4-7.8 9-12.5 15.2-11.1l35.7-116.7c-.3-.1-.6-.1-.8-.2-6.6-1.9-9.9-10.2-7.4-18.4s9.8-13.3 16.4-11.5c5.9 1.6 9.2 8.2 8.2 15.4l265.4 77.8c3.3-8.4 11.9-13.2 20-10.9 8.7 2.4 13.6 12.1 10.9 21.7-2.8 9.5-12.1 15.2-20.8 12.6-.3-.1-.7-.2-1-.3L2142 2274c7.7 3.7 11.7 13.4 9.1 22.5"/><path fill="#fff" d="M2172.9 2115.7c.2-.6.4-1.1.6-1.7l-265.4-77.8c-.1 1-.3 2-.6 3-2.4 7.9-9.3 13-15.7 11.6l-35.7 116.7c.4.1.7.2 1.1.3 6.6 2.4 9.9 11.1 7.3 19.4-.2.6-.4 1.1-.6 1.7l256.3 96.6c0-.1 0-.2.1-.3 2.8-9.5 11.8-14.7 20.3-11.6.5.2.9.4 1.4.6l40.6-137.1c-8-3.1-12.3-12.4-9.7-21.4m-44.2 152.8-262.4-96.5 36.7-120 266 80.3-40.3 136.2z"/><path fill="#aecff1" d="m1866.3 2172 262.4 96.5 40.4-136.2-266-80.3-36.8 120zm246.3-2.4c8.2 2.6 12.8 12.3 10 21.7-2.7 9.3-11.6 14.7-19.9 11.9-8.2-2.7-12.5-12.4-9.8-21.6 2.7-9.2 11.5-14.6 19.7-12m-89.2-68.9c24.9 7.5 38.5 37.6 29.8 67.2s-36.2 46.5-60.9 37.8c-24.1-8.5-36.3-38.4-27.9-66.8 8.5-28.4 34.7-45.6 59-38.2m-101.8 7.9c6.9 2.2 10.4 10.9 7.9 19.4-2.5 8.5-10.2 13.5-17.1 11.2-6.8-2.3-10.3-11-7.7-19.4 2.5-8.3 10-13.3 16.9-11.2"/><path fill="#6f93c9" d="M2012.8 2176.9c1-1.2 1.7-2.5 2.2-4.1.7-2.4.7-4.8 0-7s-1.9-4.2-3.6-5.8c-.5-.5-1.1-.9-1.8-1.3l-6.7 22.1c1.5.2 2.9.1 4.3-.3 2.2-.6 4.1-1.9 5.6-3.6M2004.5 2129.9c-1 1.2-1.7 2.5-2.2 4.1-.7 2.3-.7 4.7 0 6.9.6 2.2 1.9 4.2 3.6 5.7.5.5 1.1.9 1.8 1.3l6.6-22c-1.5-.1-2.9 0-4.3.4-2.1.6-4 1.9-5.5 3.6"/><path fill="#6f93c9" d="M1992.3 2205.6c24.6 8.7 52.1-8.1 60.9-37.8 8.7-29.6-4.9-59.7-29.8-67.2-24.3-7.3-50.5 9.8-59 38.2-8.4 28.4 3.8 58.3 27.9 66.8m5.2-55c-.3-.4-.6-.9-.9-1.3-1.9-2.9-3.1-6.2-3.4-9.7-.3-2.7 0-5.5.8-8.2 1.2-4.1 3.6-7.5 6.6-10 3-2.5 6.7-4.1 10.7-4.5 1.9-.2 3.8-.1 5.7.3l2.9-9.6 4.7 1.5-2.9 9.6c3.1 1.4 5.7 3.5 7.7 6 2.5 3.2 4.1 7 4.5 11.1.3 2.7 0 5.6-.8 8.4l-4.3-1.4-4.3-1.4c.7-2.4.7-4.8 0-7s-1.9-4.2-3.7-5.7c-.5-.5-1.1-.9-1.8-1.3l-6.8 22.5c3 1.4 5.6 3.6 7.6 6.2.3.4.7.9 1 1.3 1.9 2.9 3.2 6.3 3.5 9.9.3 2.8 0 5.6-.8 8.4-1.3 4.2-3.7 7.7-6.8 10.1-3.1 2.5-6.9 4-10.8 4.3-1.9.1-3.8 0-5.7-.4l-2.9 9.7-4.6-1.7 2.9-9.6c-3-1.5-5.6-3.7-7.5-6.3-2.4-3.2-3.9-7.1-4.3-11.2-.3-2.7 0-5.5.8-8.3l8.4 2.9c-.7 2.3-.7 4.7 0 6.9.6 2.2 1.9 4.2 3.6 5.8.5.5 1.1.9 1.8 1.3l6.8-22.5c-3.2-1.4-5.7-3.6-7.7-6.1"/><path fill="#2d65af" d="M2005.9 2146.6c-1.7-1.5-3-3.5-3.6-5.7-.6-2.2-.7-4.6 0-6.9.5-1.6 1.2-2.9 2.2-4.1 1.4-1.7 3.4-3 5.5-3.7 1.4-.4 2.8-.6 4.3-.4l2.7-8.8c-1.9-.4-3.8-.4-5.7-.3-3.9.4-7.6 2-10.7 4.5-3 2.5-5.4 5.9-6.6 10-.8 2.7-1.1 5.5-.8 8.2.3 3.5 1.5 6.8 3.4 9.7.3.4.6.9.9 1.3 2 2.6 4.5 4.7 7.5 6.1l2.7-8.8c-.6-.2-1.2-.6-1.8-1.1M2020.8 2128.6c1.7 1.5 3 3.5 3.7 5.7.7 2.2.7 4.6 0 7l4.3 1.4 4.3 1.4c.8-2.8 1.1-5.6.8-8.4-.4-4.1-2-8-4.5-11.1-2-2.5-4.6-4.6-7.7-6l-2.7 8.8c.7.3 1.3.7 1.8 1.2M1996.5 2177.9c-1.7-1.5-2.9-3.6-3.6-5.8-.6-2.2-.7-4.6 0-6.9l-8.4-2.9c-.8 2.7-1.1 5.5-.8 8.3.4 4.1 1.9 8 4.3 11.2 1.9 2.6 4.5 4.8 7.5 6.3l2.7-8.8c-.6-.5-1.2-.9-1.7-1.4M2011.4 2160c1.7 1.5 3 3.5 3.6 5.8.7 2.2.7 4.6 0 7-.5 1.6-1.2 3-2.2 4.1-1.5 1.7-3.4 3-5.5 3.6-1.4.4-2.8.5-4.3.3l-2.7 8.9c1.9.4 3.8.6 5.7.4 4-.3 7.7-1.8 10.8-4.3 3.1-2.5 5.5-6 6.8-10.1.8-2.8 1.1-5.6.8-8.4-.4-3.6-1.6-7-3.5-9.9-.3-.5-.6-.9-1-1.3-2-2.6-4.6-4.7-7.6-6.1l-2.7 8.8c.6.3 1.2.7 1.8 1.2"/><path fill="#2d65af" d="m1995.6 2188-2.9 9.7 4.6 1.6 2.9-9.6 2.7-8.9 6.7-22.1 2.6-8.8 6.8-22.6 2.7-8.8 2.9-9.6-4.7-1.4-2.9 9.6-2.7 8.8-6.6 22-2.7 8.8-6.8 22.5z"/><path fill="#6f93c9" d="M2102.7 2203.2c8.2 2.8 17.1-2.6 19.9-11.9 2.7-9.3-1.8-19-10-21.7-8.2-2.6-17 2.7-19.7 12-2.7 9.2 1.7 18.9 9.8 21.6M2120.3 2285.1c0 .1-.1.2-.1.3-2.6 9.4 2 19.5 10.4 22.6 8.5 3.2 17.8-1.9 20.6-11.6 2.6-9.1-1.4-18.8-9.1-22.4-.5-.2-.9-.4-1.4-.6-8.6-3-17.7 2.2-20.4 11.7M2182.6 2137c.3.1.6.2 1 .4 8.7 2.6 18-3.1 20.8-12.6 2.8-9.5-2.1-19.2-10.9-21.7-8.1-2.3-16.7 2.6-20 10.9-.2.6-.4 1.1-.6 1.7-2.6 9 1.7 18.3 9.7 21.3M1907.5 2039.1c.3-1 .5-2 .6-3 1-7.2-2.4-13.8-8.2-15.4-6.6-1.8-13.9 3.3-16.4 11.5-2.5 8.2.8 16.4 7.4 18.3.3.1.6.1.8.2 6.5 1.4 13.4-3.6 15.8-11.6M1857.2 2167.8c-.4-.1-.7-.2-1.1-.3-6.2-1.5-12.8 3.3-15.2 11.1-2.5 8.3.7 17 7.2 19.4 6.1 2.3 12.9-1.7 15.8-9 .2-.5.4-1.1.6-1.7 2.5-8.5-.8-17.2-7.3-19.5M1912.4 2139.3c6.9 2.3 14.5-2.7 17.1-11.2 2.5-8.5-1-17.2-7.9-19.4-6.8-2.2-14.4 2.9-16.9 11.3-2.6 8.3.9 17 7.7 19.3"/><defs><path id="P" d="M1294.1 2299.6c-26.3 85.6 119.2 235.1 139.9 287 20.7 51.9-80.7 27.2-34.1 97.7 46.5 70.5 107.3 215.6 251.7 269.6 144.3 54.1 402.5-175.2 346.6-279.3-34.8-64.9-62.2-51.2-96.6-37.6-20.8 8.2-44.1 16.5-73.2 7.4-77.2-24.1-13.2-95.7-72.7-121-59.6-25.2-71.7 18.2-71.7 18.2s2.1-15.7-12.2-49c-14.4-33.3-59.9-57-117.2-49.2-57.3 7.8-90.1-133.6-112-157.9-18.7-20.9-52.5-39.9-83.8-39.9-27.2 0-52.5 14.3-64.7 54"/></defs><clipPath id="Q"><use overflow="visible" xlink:href="#P"/></clipPath><linearGradient id="R" x1="1822.035" x2="1825.976" y1="2786.53" y2="2786.53" gradientTransform="scale(164.0367 -164.0367) rotate(53.428 3701.858 -417.607)" gradientUnits="userSpaceOnUse"><stop offset="0" stop-color="#b6f2f0"/><stop offset=".14" stop-color="#b6f2f0"/><stop offset=".155" stop-color="#acecea"/><stop offset=".209" stop-color="#8bd8d6"/><stop offset=".27" stop-color="#6ec6c5"/><stop offset=".338" stop-color="#57b8b7"/><stop offset=".415" stop-color="#45adac"/><stop offset=".508" stop-color="#38a6a5"/><stop offset=".632" stop-color="#31a1a0"/><stop offset=".918" stop-color="#2fa09f"/><stop offset=".997" stop-color="#237877"/><stop offset="1" stop-color="#237877"/></linearGradient><path fill="url(#R)" d="m903 2737.3 644-867.9 871.9 646.9-643.9 867.9z" clip-path="url(#Q)"/><g opacity=".38"><defs><path id="S" d="M1148.3 2101.4h1001v1004.9h-1001z"/></defs><clipPath id="T"><use overflow="visible" xlink:href="#S"/></clipPath><g clip-path="url(#T)"><defs><path id="U" d="M1148.3 2101.4h1001v1004.9h-1001z"/></defs><clipPath id="V"><use overflow="visible" xlink:href="#U"/></clipPath></g></g><defs><path id="W" d="M1294.1 2299.6c-26.3 85.6 119.2 235.1 139.9 287 20.7 51.9-80.7 27.2-34.1 97.7 46.5 70.5 107.3 215.6 251.7 269.6 144.3 54.1 402.5-175.2 346.6-279.3-34.8-64.9-62.2-51.2-96.6-37.6-20.8 8.2-44.1 16.5-73.2 7.4-77.2-24.1-13.2-95.7-72.7-121-59.6-25.2-71.7 18.2-71.7 18.2s2.1-15.7-12.2-49c-14.4-33.3-59.9-57-117.2-49.2-57.3 7.8-64.4-138.1-89.6-171.2-10.1-13.3-47.6-28.2-85.4-28.2-36.2.1-72.6 13.7-85.5 55.6"/></defs><clipPath id="X"><use overflow="visible" xlink:href="#W"/></clipPath><path fill="#2d65af" d="M1918.2 2737.3c-41.9 26-95.2 2.4-135.4-15.5-38.7-17.3-76.3-37-112.7-58.8-74.7-44.9-144-98.8-206.5-159.5-35.6-34.6-69-71.5-100-110.4-1.5-1.9-4.2.8-2.7 2.7 56.1 70.4 120.3 134.4 191 190.2 68.6 54.1 143.4 100.5 223 136.5 42.8 19.4 100 46.1 145.1 18.1 2.3-1.3.3-4.7-1.8-3.3" clip-path="url(#X)"/><path fill="#2d65af" d="M1509.1 2630.7c21.8 4.8 43.3 10.8 64.4 17.7 5.2 1.7 10.4 3.5 15.5 5.3 3.9 1.4 8.2 3.6 12.5 3.4 4.4-.2 8-3.6 11.4-6l13.7-9.7c2-1.4.1-4.8-1.9-3.3-4.1 2.9-8.1 5.8-12.2 8.6-4.6 3.3-8.8 7.6-14.9 6-9.6-2.5-19-6.7-28.5-9.8-19.4-6.2-39.1-11.5-59-15.9-2.4-.5-3.4 3.2-1 3.7M1691.8 2674.2c-5.2-8.6-7.5-19.2-11.3-28.6-3.6-9-7.6-17.8-12.1-26.5-9.1-17.8-19.9-34.8-32.1-50.6-1.5-1.9-4.8 0-3.3 1.9 12.2 15.9 23 32.8 32.1 50.6 4.7 9.1 8.9 18.4 12.6 27.9 3.5 8.9 5.8 18.8 10.7 27.1 1.4 2.2 4.7.3 3.4-1.8M1643 2720.5c19.9-2.1 39.9-2 59.8.1 8.5.9 18.1 3.9 26.6 2.2 7.7-1.5 13.6-7.9 21.6-8.3 2.5-.1 2.5-4 0-3.8-7.6.4-13 5.3-19.9 7.7-8.7 3-19.4-.7-28.3-1.6-19.9-2.1-39.9-2.2-59.8-.1-2.4.3-2.5 4.1 0 3.8M1810.7 2716.4c-19-28.1-43.6-51.5-68.1-74.7-1.8-1.7-4.5 1-2.7 2.7 24.3 22.9 48.7 46.1 67.5 73.9 1.4 2.1 4.7.2 3.3-1.9M1765.9 2804.5c13.6-4.1 27.4-6.7 41.5-8.3 12.3-1.3 24.8-2.6 36-8.1 2.2-1.1.3-4.4-1.9-3.3-11.9 5.8-25.2 6.5-38.1 8-13 1.5-25.9 4.1-38.4 8-2.5.7-1.5 4.4.9 3.7M1521.2 2542.1c2.6-4.6.7-10.1-.7-14.8-1.8-6-3.8-12-6-17.9-4.4-11.7-9.8-23-15.9-33.8-1.2-2.2-4.5-.2-3.3 1.9 5.6 9.9 10.5 20.1 14.7 30.7 2 5.1 3.9 10.3 5.5 15.6 1.4 4.4 5 12 2.5 16.3-1.3 2.2 2 4.2 3.2 2" clip-path="url(#X)"/><path fill="#80dbda" d="M1244.8 2158.9c-13.7-10.7-35.3-58-54.5-54.5-14.8 2.7-11.5 22-8.8 32.9 7.9 59.9 110.5 60.6 63.3 21.6"/><path fill="#6f93c9" d="m2369 2922.5-565.4 97.6-20.6-749 549.7-32.4z"/><path fill="#4a627c" d="m2329.4 2894.7-482.2 80.5-19.9-671.7 470.2-30.2z"/><g opacity=".38"><defs><path id="Y" d="M1684.1 2127.7h788.2v993.1h-788.2z"/></defs><clipPath id="Z"><use overflow="visible" xlink:href="#Y"/></clipPath><g clip-path="url(#Z)"><defs><path id="aa" d="M1684.1 2127.7h788.2v993.1h-788.2z"/></defs><clipPath id="ab"><use overflow="visible" xlink:href="#aa"/></clipPath></g></g><path fill="#e6edf4" d="m2173.8 2667.3-175.9 22.2c-35.3 4.5-65.1-19.1-66.2-52.6l-2.7-80.5c-1.1-33.1 26.6-62.6 61.6-66l174.6-16.6c32.8-3.1 60.3 19.9 61.8 51.5l3.6 76.6c1.5 32-23.8 61.2-56.8 65.4"/><path fill="#4a627c" d="m2027.9 2662.6 133.4-91.5-139.2-60.9z"/><path fill="#e6edf4" d="m2188.8 2781.8-196.9 28.5-.6-17.3 196.7-28zM2123 2809l-61.1 9-.2-6.2 61-9zM2263.7 2829.7l-348.3 53.9-.4-12.8 348.1-53.1z"/><path fill="#d12d34" d="m1961.8 2842.7-36 5.4c-1.9.3-3.6-1-3.6-2.8l-.4-11.8c-.1-1.8 1.5-3.6 3.4-3.8l36-5.3c1.9-.3 3.5 1 3.6 2.8l.4 11.7c.1 1.8-1.4 3.6-3.4 3.8"/><path fill="#9696ed" d="m2258.2 2798.5-31.3 4.7c-2.2.3-4-1.2-4.1-3.3l-.9-19c-.1-2.2 1.6-4.2 3.8-4.5l31.2-4.5c2.2-.3 4 1.2 4.1 3.3l.9 18.8c.2 2.2-1.5 4.2-3.7 4.5"/><path fill="#aecff1" d="m3397.3 2925.9-528.7 53.6-28.4-696.7h512.4z"/><path fill="#4a627c" d="m3359.4 2897.1-450.9 43.4-26.9-625.3 438.4-2.1z"/><g opacity=".38"><defs><path id="ac" d="M2736.3 2171.1h768.5v914.3h-768.5z"/></defs><clipPath id="ad"><use overflow="visible" xlink:href="#ac"/></clipPath><g clip-path="url(#ad)"><defs><path id="ae" d="M2736.3 2171.1h768.5v914.3h-768.5z"/></defs><clipPath id="af"><use overflow="visible" xlink:href="#ae"/></clipPath></g></g><path fill="#e6edf4" d="m3209.5 2674-164.3 9.8c-32.8 2-60.9-21.8-62.4-53l-3.6-75c-1.5-30.9 23.9-56.7 56.5-57.7l162.9-5.2c30.7-1 56.9 22.1 58.7 51.7l4.5 71.9c1.9 29.8-21.4 55.6-52.3 57.5"/><path fill="#4a627c" d="m3072.8 2660.6 123.5-77.3-131-65.1z"/><path fill="#e6edf4" d="m3225.2 2782-184 14.1-.9-16.2 183.9-13.6zM3163.8 2803.3l-57.1 4.5-.3-5.8 57.1-4.5zM3296.4 2831.8l-325.6 27.7-.6-11.9 325.5-27.1z"/><path fill="#d12d34" d="m3013.6 2824.5-33.5 2.7c-1.8.1-3.3-1.1-3.4-2.9l-.5-11c-.1-1.7 1.3-3.2 3.1-3.4l33.5-2.6c1.8-.1 3.3 1.1 3.4 2.8l.5 11c0 1.7-1.4 3.2-3.1 3.4"/><path fill="#9696ed" d="m3290.8 2802.2-29.4 2.4c-2.1.2-3.8-1.3-3.9-3.4l-1.1-17.8c-.1-2 1.4-3.8 3.5-4l29.3-2.2c2-.2 3.8 1.4 3.9 3.4l1.1 17.7c.2 1.9-1.4 3.7-3.4 3.9"/><path fill="#6f93c9" d="m4594 3033.4-599.6-87.6 28.3-787.1 565-37.9z"/><path fill="#4a627c" d="m4543.8 2979.5-510.2-68.9 23.9-717.9L4541 2165z"/><g opacity=".38"><defs><path id="ag" d="M3891.1 2021.3h796.1v1103.5h-796.1z"/></defs><clipPath id="ah"><use overflow="visible" xlink:href="#ag"/></clipPath><g clip-path="url(#ah)"><defs><path id="ai" d="M3891.1 2021.3h796.1v1103.5h-796.1z"/></defs><clipPath id="aj"><use overflow="visible" xlink:href="#ai"/></clipPath></g></g><path fill="#e6edf4" d="m4371.2 2641.7-183.6-10.6c-33.7-1.9-59.8-33.8-58.8-71l2.4-89c1-36.5 28.3-66 61.5-66l180.7-.1c37 0 67.4 31.8 67.2 71.3l-.4 96.3c-.2 40.2-31.4 71.3-69 69.1"/><path fill="#4a627c" d="m4218.5 2606.2 144.7-84.2-141.2-91.1z"/><path fill="#e6edf4" d="m4381 2786.6-206.6-19.2.5-19.9 206.3 18.1zM4307 2801.1l-64.1-6.3.1-7.4 64.1 6.2zM4465.7 2870.4l-366.8-40.8.5-14.3 366.3 39.4z"/><path fill="#d12d34" d="m4144 2796.4-33.4-3.4c-1.8-.2-3.2-2-3.1-4.1l.4-13.2c.1-2.1 1.5-3.6 3.3-3.4l33.4 3.2c1.8.2 3.2 2 3.2 4.1l-.3 13.3c-.2 2.1-1.7 3.7-3.5 3.5"/><path fill="#9696ed" d="m4461 2828.5-37.4-3.8c-2.6-.3-4.7-2.7-4.6-5.5l.1-24.1c0-2.7 2.1-4.8 4.7-4.5l37.3 3.5c2.6.2 4.7 2.7 4.7 5.5l-.1 24.4c.1 2.7-2 4.8-4.7 4.5"/><defs><path id="ak" d="M3157.7 1183.7c3.8 19.5 50.4 17.9 54.1 69.4 2.9-44.6 41.9-42.3 56-66.4-41.8-58.3-26.2-234.4-26.2-234.4l-75.5-6.5s39.5 147.5-8.4 237.9"/></defs><clipPath id="al"><use overflow="visible" xlink:href="#ak"/></clipPath><linearGradient id="am" x1="1841.253" x2="1845.194" y1="2784.448" y2="2784.448" gradientTransform="scale(-64.2573 64.2573) rotate(-86.82 -565.707 2401.815)" gradientUnits="userSpaceOnUse"><stop offset="0" stop-color="#ffc7d0"/><stop offset=".118" stop-color="#e65e75"/><stop offset=".599" stop-color="#f291a1"/><stop offset=".65" stop-color="#f08a9b"/><stop offset=".723" stop-color="#ec778b"/><stop offset=".796" stop-color="#e65e75"/><stop offset="1" stop-color="#e65e75"/></linearGradient><path fill="url(#am)" d="m3158.1 1259.1-17.4-312.4 126.8-7 17.4 312.4z" clip-path="url(#al)"/><defs><path id="an" d="M3119.6 896s-2.1 171.4 95.5 164.7c97.6-6.7 75.4-211.7 72.8-218.9-1.4-3.9-53.2-30.1-99-30.1-38.6 0-72.9 18.5-69.3 84.3"/></defs><clipPath id="ao"><use overflow="visible" xlink:href="#an"/></clipPath><radialGradient id="ap" cx="1811.418" cy="2780.402" r="3.941" gradientTransform="matrix(12.5941 47.2852 47.2871 -12.5936 -151089.328 -49732.707)" gradientUnits="userSpaceOnUse"><stop offset="0" stop-color="#ffadbb"/><stop offset=".144" stop-color="#fca4b3"/><stop offset=".38" stop-color="#f58c9d"/><stop offset=".676" stop-color="#e9647a"/><stop offset=".878" stop-color="#e0455f"/><stop offset="1" stop-color="#e0455f"/></radialGradient><path fill="url(#ap)" d="m3299.6 762.8 76.6 287.7-247.2 65.8-76.6-287.6z" clip-path="url(#ao)"/><path fill="#6f93c9" d="m4531.7 2532.5 96.7 160.5 301.5-153.9-114.2-185.2-284 178.6zm385.4-7.4c5.3 8.5 3 18.8-5.1 23-7.9 4.1-18.5.8-23.8-7.4l-243 126.3c3.5 7.1 1.9 14.8-3.8 17.8-6.1 3.2-14.8-.2-19.2-7.6-4.2-7-3.3-15 1.9-18.7l-63-104.5c-.2.2-.5.3-.7.5-5.8 3.6-14.2.6-18.6-6.7-4.4-7.3-3.4-16.2 2.4-19.9 5.1-3.3 12.2-1.4 17 4.2l235.1-145.6c-4-8-1.9-17.7 5.2-22.2 7.6-4.9 18.1-2 23.4 6.4 5.3 8.4 3.2 19.1-4.5 23.9-.3.2-.6.3-.9.5l75 121.7c7.6-3.2 17.6.2 22.6 8.3"/><path fill="#fff" d="M4797 2388.1c-.3-.5-.6-1-.9-1.6L4561 2532.1c.6.8 1.2 1.6 1.8 2.5 4.3 7.1 3.4 15.6-1.8 19.5l63 104.5c.3-.2.6-.4 1-.6 6.1-3.3 14.8 0 19.4 7.5.3.5.6 1 .9 1.6l243-126.3c-.1-.1-.1-.2-.2-.3-5.2-8.4-3-18.6 4.9-22.9.4-.2.9-.5 1.4-.6l-75-121.7c-7.7 3.8-17.4.8-22.4-7.2m84.2 134.9-247 130.9-64.8-107.5 237.4-144.4 74.4 121z"/><path fill="#aecff1" d="m4634.2 2653.9 247-130.9-74.5-121-237.4 144.4 64.9 107.5zm162.6-184.9c7.5-4.4 17.7-1.3 22.8 7 5.1 8.3 3.1 18.5-4.4 22.7-7.5 4.2-17.6 1-22.7-7.1-4.9-8.1-3.1-18.2 4.3-22.6m-110.8 20.3c22.2-13.5 53.7-3.5 69.9 22.7 16.2 26.3 10.4 58-12.5 70.5-22.4 12.2-52.8 1.4-68.3-23.8s-10.8-56.1 10.9-69.4m-62.1 81.2c6.2-3.7 15.1-.5 19.7 7.1s3.3 16.7-3 20.2-15 .3-19.6-7.2c-4.6-7.5-3.3-16.5 2.9-20.1"/><path fill="#6f93c9" d="M4735.6 2548.2c-.2-1.5-.7-3-1.6-4.4-1.3-2.1-3.1-3.7-5.2-4.7s-4.4-1.4-6.7-1.1c-.7.1-1.4.2-2.1.5l12 19.7c1.1-1 2-2.1 2.7-3.4.9-2.1 1.3-4.4.9-6.6M4695.2 2522.9c.2 1.5.7 3 1.6 4.4 1.3 2.1 3.1 3.6 5.1 4.6 2.1 1 4.4 1.4 6.6 1.1.7-.1 1.4-.2 2.1-.5l-12-19.7c-1.1 1-2 2.2-2.6 3.5-.8 2.1-1.1 4.4-.8 6.6"/><path fill="#6f93c9" d="M4743.4 2582.6c23-12.5 28.8-44.2 12.5-70.5-16.2-26.2-47.7-36.3-69.9-22.7-21.7 13.2-26.4 44.2-11 69.4 15.5 25.2 45.9 36 68.4 23.8m-37.5-40.6c-.5 0-1.1-.1-1.6-.2-3.4-.5-6.7-1.9-9.5-4-2.2-1.6-4.1-3.7-5.6-6.1-2.2-3.6-3.2-7.7-3-11.6.2-3.9 1.5-7.7 3.8-10.9 1.1-1.5 2.4-2.9 4-4.1l-5.2-8.6 4.2-2.5 5.2 8.6c3.1-1.3 6.4-1.9 9.6-1.7 4 .3 8 1.7 11.3 4.1 2.2 1.6 4.2 3.7 5.7 6.2l-3.9 2.3-3.9 2.3c-1.3-2.1-3.1-3.7-5.2-4.7s-4.4-1.4-6.7-1.1c-.7.1-1.4.3-2.1.5l12.2 20.1c3.1-1.3 6.4-1.8 9.7-1.6.6 0 1.1.1 1.6.2 3.5.5 6.8 1.9 9.8 4 2.2 1.6 4.2 3.7 5.7 6.2 2.3 3.7 3.2 7.9 3 11.8-.2 4-1.6 7.8-4.1 10.9-1.2 1.5-2.5 2.8-4.1 4l5.2 8.6-4.3 2.3-5.2-8.6c-3.1 1.2-6.4 1.7-9.7 1.4-4-.4-7.9-1.8-11.2-4.3-2.2-1.6-4.1-3.7-5.6-6.1l7.7-4.3c1.3 2.1 3.1 3.7 5.1 4.7 2.1 1 4.4 1.4 6.7 1.2.7-.1 1.4-.2 2.1-.4l-12.2-20.1c-3 1.2-6.3 1.7-9.5 1.5"/><path fill="#2d65af" d="M4708.5 2533.1c-2.3.3-4.6-.1-6.6-1.1-2.1-1-3.8-2.5-5.1-4.6-.9-1.4-1.4-2.9-1.6-4.4-.3-2.2 0-4.5.9-6.5.6-1.3 1.5-2.5 2.6-3.5l-4.8-7.9c-1.5 1.2-2.9 2.6-4 4.1-2.3 3.2-3.6 7-3.8 10.9-.2 3.9.8 8 3 11.6 1.5 2.4 3.4 4.5 5.6 6.1 2.8 2.1 6.1 3.4 9.5 4 .5.1 1.1.1 1.6.2 3.2.3 6.5-.2 9.6-1.5l-4.8-7.8c-.6.1-1.4.3-2.1.4M4705 2509.9c2.3-.3 4.6.1 6.7 1.1 2.1 1 3.9 2.5 5.2 4.7l3.9-2.3 3.9-2.3c-1.5-2.5-3.5-4.6-5.7-6.2-3.3-2.4-7.3-3.8-11.3-4.1-3.2-.2-6.5.4-9.6 1.7l4.8 7.8c.7-.1 1.4-.3 2.1-.4M4725.5 2561c-2.3.2-4.6-.2-6.7-1.2-2.1-1-3.9-2.6-5.1-4.7l-7.7 4.3c1.5 2.4 3.4 4.5 5.6 6.1 3.3 2.4 7.2 3.9 11.2 4.3 3.2.3 6.6-.2 9.7-1.4l-4.8-7.9c-.7.2-1.4.4-2.2.5M4722.1 2537.9c2.3-.3 4.6.1 6.7 1.1 2.1 1 3.9 2.6 5.2 4.7.9 1.4 1.4 2.9 1.6 4.4.3 2.2 0 4.5-1 6.5-.6 1.3-1.5 2.5-2.7 3.4l4.8 7.9c1.6-1.1 3-2.5 4.1-4 2.4-3.2 3.8-7 4.1-10.9s-.7-8.1-3-11.8c-1.5-2.5-3.5-4.6-5.7-6.2-2.9-2.1-6.3-3.5-9.8-4-.5-.1-1.1-.1-1.6-.2-3.3-.2-6.6.3-9.7 1.6l4.8 7.9c.7-.1 1.5-.3 2.2-.4"/><path fill="#2d65af" d="m4732.5 2568.4 5.2 8.6 4.3-2.3-5.2-8.7-4.8-7.9-12.1-19.7-4.7-7.9-12.3-20.1-4.8-7.8-5.2-8.6-4.2 2.5 5.2 8.6 4.8 7.8 12 19.7 4.7 7.8 12.3 20.1z"/><path fill="#6f93c9" d="M4815.3 2498.8c7.5-4.3 9.5-14.5 4.4-22.7-5.1-8.3-15.4-11.4-22.8-7-7.4 4.3-9.3 14.5-4.2 22.6 5 8.1 15.1 11.3 22.6 7.1M4888 2540.4c.1.1.1.2.2.3 5.3 8.2 15.8 11.5 23.8 7.4 8.1-4.2 10.4-14.5 5.1-23-5-8-14.9-11.5-22.8-8.2-.5.2-.9.4-1.4.6-8 4.3-10.2 14.5-4.9 22.9M4819.3 2395.1c.3-.2.6-.3.9-.5 7.7-4.8 9.8-15.5 4.5-23.9-5.2-8.4-15.7-11.3-23.4-6.4-7.1 4.5-9.2 14.2-5.2 22.2.3.5.6 1.1.9 1.6 5 8 14.7 11 22.3 7M4562.8 2534.6c-.5-.9-1.1-1.7-1.8-2.5-4.7-5.5-11.8-7.4-17-4.2-5.8 3.7-6.9 12.6-2.4 19.9 4.4 7.3 12.8 10.3 18.6 6.7.3-.1.5-.3.7-.5 5.3-3.9 6.2-12.4 1.9-19.4M4624.9 2657.9c-.3.2-.7.4-1 .6-5.2 3.6-6.1 11.7-1.9 18.7 4.5 7.4 13.1 10.8 19.2 7.6 5.8-3 7.3-10.7 3.8-17.8-.3-.5-.5-1-.9-1.6-4.3-7.4-13-10.8-19.2-7.5M4640.6 2597.8c6.3-3.6 7.7-12.6 3-20.2-4.6-7.6-13.5-10.7-19.7-7.1-6.2 3.6-7.5 12.6-2.9 20.1 4.6 7.5 13.4 10.8 19.6 7.2M1553 2976.6l-7.4 187 337 36 21-135.2-350.6-87.8zm329 211.9c-.9 6-6.4 10.3-12.5 9.7-6-.6-10.3-5.9-9.6-12l-272.2-32c-1.3 7-9.3 11.7-18.8 10.7-10.4-1.1-18.7-8.5-18.4-16.6.3-7.7 8.2-13.1 17.8-12.6l5.6-118.7c-.4-.1-.9-.1-1.3-.2-10.9-2.4-19.6-11.6-19.3-20.6.3-9 9.6-14.2 20.6-11.5 9.5 2.3 17.1 9.7 18.5 17.4l286.4 68.1c1.4-5.9 7-9.5 12.8-8.1 6.2 1.5 10.3 8 9.3 14.4s-6.7 10.6-12.8 9.2c-.2-.1-.5-.1-.7-.2l-13.7 90.7c5.5 1.4 9.1 6.6 8.3 12.3"/><path fill="#fff" d="M1878.5 3071.5c.1-.4.1-.8.2-1.2l-286.4-68.1c.2 1 .3 2.1.2 3.2-.4 8.3-8.5 13.4-18.6 11.7l-5.6 118.7c.6 0 1.2.1 1.7.1 10.3 1.3 18.2 8.8 17.9 16.7 0 .5-.1 1.1-.2 1.6l272.2 32v-.2c.9-6.1 6.6-10.5 12.7-9.8.3 0 .7.1 1 .2l13.7-90.7c-5.7-1.7-9.7-7.8-8.8-14.2m-14.5 103.3-279.3-36.2 6.3-119.8 286.5 64.4-13.5 91.6z"/><path fill="#aecff1" d="m1584.7 3138.6 279.3 36.2 13.6-91.7-286.5-64.4-6.4 119.9zm255.6-26.6c6.6 1.2 11.2 7.5 10.4 14-.9 6.5-6.9 10.9-13.5 9.8-6.7-1.1-11.5-7.3-10.7-13.9.9-6.6 7.1-11.1 13.8-9.9m-89.9-47.7c25.6 5.4 43.4 28.3 40.8 51.1-2.6 22.4-24.1 37.8-49.2 34.4-26.3-3.5-46.8-26-44.8-50.5 1.9-24.9 26.3-40.6 53.2-35m-113.6 10.6c9.5 1.7 16.7 9.5 16.2 17.4-.5 7.8-8.5 12.9-17.9 11.4-9.6-1.5-17.1-9.3-16.7-17.3.4-8.1 8.7-13.2 18.4-11.5"/><path fill="#6f93c9" d="M1755.8 3125.8c.7-1 1.1-2.1 1.3-3.4.2-1.9-.3-3.7-1.4-5.4-1.1-1.7-2.7-3.1-4.7-4.2-.6-.3-1.3-.6-2-.9l-1.9 17.8c1.5 0 2.9-.2 4.1-.7 1.9-.6 3.5-1.7 4.6-3.2M1737.7 3089.3c-.7 1-1.2 2.2-1.3 3.5-.2 2 .4 3.9 1.5 5.6 1.1 1.7 2.8 3.2 4.9 4.3.6.3 1.3.6 2 .9l1.9-18.2c-1.5 0-3 .1-4.2.6-2 .7-3.7 1.8-4.8 3.3"/><path fill="#6f93c9" d="M1741.9 3149.8c25.1 3.3 46.7-12 49.2-34.4 2.6-22.8-15.2-45.7-40.8-51.1-26.8-5.6-51.2 10.1-53.3 35-1.9 24.5 18.7 47 44.9 50.5m-6.8-43.3c-.4-.3-.8-.7-1.2-1-2.6-2.2-4.6-4.8-5.7-7.7-.9-2.2-1.3-4.5-1-6.8.3-3.5 2-6.5 4.6-8.7 2.6-2.2 6-3.7 10-4.2 1.8-.2 3.8-.2 5.8 0l.8-8 5 1-.8 8c3.3 1 6.3 2.6 8.7 4.5 3 2.4 5.3 5.4 6.5 8.6.8 2.1 1.1 4.4.9 6.6l-4.4-.8-4.4-.8c.2-1.9-.3-3.8-1.4-5.5-1.1-1.7-2.7-3.2-4.7-4.4-.6-.4-1.3-.7-2-.9l-2 18.4c3.3.9 6.2 2.4 8.7 4.2.4.3.8.6 1.2 1 2.4 2.1 4.3 4.6 5.3 7.3.8 2.1 1.1 4.3.9 6.4-.4 3.3-2 6.1-4.4 8.3-2.4 2.2-5.7 3.7-9.5 4.4-1.8.3-3.7.4-5.6.3l-.8 7.6-4.9-.7.8-7.7c-3.3-.8-6.3-2.2-8.9-4-3.2-2.3-5.6-5.2-6.9-8.3-.9-2.1-1.3-4.4-1-6.7l9.2 1.5c-.2 1.9.4 3.8 1.5 5.5 1.1 1.7 2.8 3.1 4.8 4.1.6.3 1.3.6 2 .8l1.9-18.2c-3.4-.7-6.4-2.2-9-4.1"/><path fill="#2d65af" d="M1742.8 3102.7c-2-1.1-3.7-2.6-4.9-4.3-1.1-1.7-1.7-3.6-1.5-5.6.1-1.3.6-2.5 1.3-3.5 1.1-1.5 2.7-2.7 4.7-3.3 1.3-.4 2.7-.6 4.2-.6l.8-7.3c-2-.2-3.9-.2-5.8 0-3.9.5-7.4 2-10 4.2-2.6 2.2-4.3 5.2-4.6 8.7-.2 2.3.2 4.6 1 6.8 1.1 2.8 3.1 5.5 5.7 7.7.4.3.8.7 1.2 1 2.5 1.9 5.6 3.4 8.9 4.3l.8-7.2c-.5-.2-1.2-.5-1.8-.9M1753.7 3087.3c2 1.1 3.6 2.6 4.7 4.4 1.1 1.7 1.6 3.6 1.4 5.5l4.4.8 4.4.8c.3-2.2-.1-4.5-.9-6.6-1.2-3.2-3.5-6.2-6.5-8.6-2.5-1.9-5.4-3.5-8.7-4.5l-.8 7.3c.7.3 1.3.6 2 .9M1740.1 3128.2c-2-1-3.7-2.5-4.8-4.1-1.1-1.7-1.7-3.5-1.5-5.5l-9.2-1.5c-.2 2.3.2 4.5 1 6.7 1.3 3.2 3.7 6.1 6.9 8.3 2.5 1.8 5.6 3.2 8.9 4l.7-7.1c-.7-.2-1.4-.5-2-.8M1750.9 3112.9c2 1 3.6 2.5 4.7 4.2 1.1 1.7 1.6 3.5 1.4 5.4-.1 1.3-.6 2.4-1.3 3.4-1 1.5-2.6 2.6-4.6 3.3-1.3.4-2.7.7-4.1.7l-.8 7.1c1.9.1 3.8 0 5.6-.3 3.8-.7 7-2.2 9.5-4.4 2.4-2.2 4-5 4.4-8.3.2-2.2-.1-4.4-.9-6.4-1-2.7-2.9-5.2-5.3-7.3-.4-.3-.8-.7-1.2-1-2.4-1.9-5.4-3.3-8.7-4.2l-.8 7.1c.8 0 1.5.3 2.1.7"/><path fill="#2d65af" d="m1741.4 3136.1-.8 7.7 4.9.7.8-7.7.7-7 1.9-17.8.8-7.2 2-18.4.7-7.3.9-8-5-1-.8 8-.8 7.3-1.9 18.2-.8 7.2-1.9 18.2z"/><path fill="#6f93c9" d="M1837.2 3135.9c6.6 1 12.6-3.3 13.5-9.8.9-6.5-3.7-12.8-10.4-14-6.7-1.2-12.9 3.2-13.8 9.9-.8 6.6 4 12.8 10.7 13.9M1860 3186v.2c-.7 6 3.5 11.4 9.6 12 6 .6 11.6-3.7 12.5-9.7.8-5.7-2.8-10.9-8.3-12.1-.3-.1-.7-.1-1-.2-6.3-.7-12 3.7-12.8 9.8M1887.4 3085.7c.2.1.5.1.7.2 6.1 1.3 11.8-2.8 12.8-9.2 1-6.5-3.2-12.9-9.3-14.4-5.8-1.4-11.4 2.1-12.8 8.1-.1.4-.2.8-.2 1.2-1 6.3 3 12.4 8.8 14.1M1592.5 3005.4c.1-1.1 0-2.1-.2-3.2-1.4-7.7-9-15.1-18.5-17.4-11-2.7-20.3 2.5-20.6 11.5-.3 9 8.4 18.2 19.3 20.6.5.1.9.2 1.3.2 10.2 1.6 18.4-3.4 18.7-11.7M1570.1 3135.9c-.6-.1-1.2-.1-1.7-.1-9.7-.5-17.6 4.9-17.8 12.5-.3 8.1 8 15.5 18.4 16.6 9.5 1 17.5-3.7 18.8-10.7.1-.5.2-1 .2-1.6.3-7.9-7.6-15.4-17.9-16.7M1635 3103.8c9.4 1.5 17.4-3.6 17.9-11.4.5-7.9-6.6-15.7-16.2-17.4-9.7-1.8-18 3.4-18.4 11.5-.4 8 7.1 15.8 16.7 17.3M1821.4 1212.1l-104.3 123.2 208.9 203.6 119.6-144.3-224.2-182.5zm112.5 312.5c-5.5 6.7-14.6 7.6-20.2 2.2-5.6-5.4-5.8-14.9-.5-21.5L1743 1341.8c-4.8 4.8-11.6 5.7-15.6 1.8-4.3-4.1-3.9-12.1.9-17.8 4.5-5.4 11.4-6.9 15.8-3.6l67.9-80.3c-.2-.1-.4-.3-.6-.4-4.6-3.8-4.4-11.4.4-17.1 4.7-5.6 12.3-7.2 16.9-3.5 4.1 3.3 4.5 9.6 1.3 15l183.7 151.7c5.4-5.5 13.9-6.4 19.6-1.9 6.1 4.9 6.7 14.2 1.2 20.8-5.4 6.6-14.7 7.9-20.8 2.9-.2-.2-.4-.4-.7-.6l-78.7 94.8c4.8 5.6 4.7 14.7-.4 21"/><path fill="#fff" d="M2012.5 1388.8c.3-.4.7-.8 1-1.2l-183.7-151.7c-.4.7-.9 1.5-1.5 2.1-4.6 5.5-11.8 7.1-16.4 3.9l-67.9 80.3c.3.2.5.4.8.6 4.4 4.1 4.1 12.1-.8 17.9-.3.4-.7.8-1 1.1l170.2 163.5c.1-.1.1-.2.2-.2 5.4-6.6 14.4-7.6 20.1-2.3l.9.9 78.7-94.8c-5.5-5-5.7-13.8-.6-20.1m-86.9 106-175-165.5 69.8-82.6 183.4 153.9-78.2 94.2z"/><path fill="#aecff1" d="m1750.6 1329.3 175 165.5 78.2-94.2-183.4-153.9-69.8 82.6zm195.8 81.7c5.6 4.9 5.9 14.1.6 20.6-5.3 6.5-14.2 7.7-19.8 2.7-5.5-4.9-5.7-14.1-.4-20.5 5.2-6.4 14-7.6 19.6-2.8m-47.2-84.9c17.2 14.4 17.7 42.9.8 63.3-17 20.5-44.5 24.5-61 9.2-16.2-14.9-15.7-42.7.6-62.4 16.3-19.4 42.8-24.1 59.6-10.1m-83.4-28.2c4.7 4.1 4.6 12.2-.3 18.1-4.9 5.9-12.7 7.3-17.4 3.1-4.6-4.1-4.4-12.2.4-18 5-5.8 12.7-7.3 17.3-3.2"/><path fill="#6f93c9" d="M1864.9 1382.9c1.2-.6 2.2-1.4 3.2-2.5 1.4-1.6 2.2-3.6 2.4-5.5.2-2-.1-4-.9-5.8-.3-.6-.6-1.1-1-1.6l-12.8 15.3c1.1.6 2.3 1.1 3.5 1.2 1.9.1 3.9-.2 5.6-1.1M1874.3 1342.9c-1.2.6-2.2 1.4-3.1 2.5-1.4 1.6-2.1 3.5-2.4 5.5-.2 2 .1 3.9.9 5.7.3.6.6 1.1 1 1.6l12.7-15.2c-1.1-.6-2.3-1-3.6-1.1-1.8-.2-3.7.1-5.5 1"/><path fill="#6f93c9" d="M1839 1398.7c16.5 15.3 44 11.3 61-9.2 16.9-20.5 16.4-48.9-.8-63.3-16.8-14.1-43.3-9.4-59.7 10.2-16.3 19.6-16.7 47.4-.5 62.3m22.7-41.8c-.1-.5-.2-.9-.3-1.4-.5-2.9-.3-6 .6-8.9.7-2.2 1.9-4.3 3.4-6.2 2.4-2.8 5.4-4.7 8.7-5.7 3.3-.9 6.7-.9 10 .1 1.5.5 3 1.2 4.4 2.1l5.5-6.6 3.2 2.7-5.6 6.6c1.9 2.1 3.3 4.7 4 7.4.9 3.4.9 7-.2 10.4-.7 2.3-1.9 4.4-3.5 6.3l-2.9-2.6-2.9-2.6c1.4-1.6 2.1-3.5 2.4-5.5.2-2-.1-4-1-5.7-.3-.6-.6-1.1-1-1.6l-13 15.5c1.9 2.2 3.3 4.7 4 7.5.1.5.2.9.3 1.4.5 3 .4 6.1-.6 9.1-.7 2.3-1.9 4.5-3.5 6.4a17.3 17.3 0 0 1-8.8 5.7c-3.3.9-6.8.8-10-.3-1.5-.5-3-1.3-4.4-2.3l-5.6 6.7-3.1-2.9 5.6-6.6c-1.9-2.2-3.2-4.8-3.8-7.5-.8-3.4-.7-7 .4-10.3.7-2.2 1.9-4.4 3.5-6.3l5.6 5.1c-1.4 1.6-2.1 3.5-2.4 5.5-.3 2 0 4 .9 5.8.3.6.6 1.1 1 1.6l13-15.5c-1.9-2.2-3.2-4.7-3.9-7.4"/><path fill="#2d65af" d="M1869.8 1356.6c-.8-1.8-1.2-3.8-.9-5.7.2-2 1-3.8 2.4-5.5.9-1.1 2-1.9 3.1-2.5 1.7-.9 3.7-1.3 5.6-1 1.2.1 2.4.5 3.6 1.1l5.1-6.1c-1.4-.9-2.9-1.7-4.4-2.1-3.3-1-6.7-1-10-.1-3.2.9-6.3 2.9-8.7 5.7-1.6 1.9-2.7 4-3.4 6.2-.9 2.9-1.1 5.9-.6 8.9.1.5.2.9.3 1.4.7 2.7 2 5.2 3.9 7.4l5.1-6.1c-.5-.5-.9-1-1.1-1.6M1887.7 1347.4c.9 1.8 1.2 3.8 1 5.7-.2 2-1 3.9-2.4 5.5l2.9 2.6 2.9 2.6c1.6-1.9 2.8-4.1 3.5-6.4 1.1-3.4 1.1-7 .2-10.4-.7-2.7-2.1-5.2-4-7.4l-5.1 6.1c.4.6.7 1.1 1 1.7M1851.7 1378.2c-.8-1.8-1.1-3.8-.9-5.8.3-2 1-3.9 2.4-5.5l-5.6-5.1c-1.6 1.9-2.7 4-3.5 6.3-1.1 3.4-1.2 6.9-.4 10.3.7 2.7 2 5.3 3.8 7.5l5.1-6.1c-.4-.5-.7-1-.9-1.6M1869.5 1369c.8 1.8 1.2 3.8.9 5.8-.2 2-1 3.9-2.4 5.5-.9 1.1-2 1.9-3.2 2.5-1.7.9-3.7 1.2-5.6 1-1.2-.2-2.4-.6-3.5-1.2l-5.1 6.1c1.4 1 2.8 1.8 4.4 2.3 3.3 1.1 6.7 1.2 10 .3 3.3-.9 6.4-2.8 8.8-5.7 1.6-1.9 2.8-4.1 3.5-6.4.9-3 1.1-6.1.6-9.1-.1-.5-.2-.9-.3-1.4-.7-2.7-2-5.3-4-7.5l-5.1 6.1c.4.6.8 1.2 1 1.7"/><path fill="#2d65af" d="m1847.5 1385.9-5.6 6.6 3.2 2.9 5.5-6.6 5.2-6.1 12.8-15.3 5.1-6.1 13-15.5 5.1-6.1 5.5-6.6-3.2-2.8-5.5 6.6-5.1 6.1-12.8 15.2-5.1 6.1-13 15.5z"/><path fill="#6f93c9" d="M1927.2 1434.3c5.6 5 14.4 3.8 19.8-2.7 5.3-6.5 5-15.7-.6-20.6-5.6-4.8-14.4-3.6-19.6 2.8-5.3 6.4-5.1 15.5.4 20.5M1913.3 1505.1c-.1.1-.1.2-.2.2-5.2 6.6-5 16.1.5 21.5 5.7 5.5 14.7 4.5 20.2-2.2 5.2-6.3 5.2-15.4.4-20.9-.3-.3-.6-.7-.9-.9-5.6-5.3-14.6-4.3-20 2.3M2012.9 1408.9c.2.2.4.4.7.6 6 5 15.3 3.7 20.7-2.9 5.4-6.6 4.8-16-1.2-20.8-5.7-4.6-14.1-3.6-19.6 1.9-.4.4-.7.7-1 1.2-5.1 6.2-4.9 15 .4 20M1828.3 1238.1c.6-.7 1.1-1.4 1.5-2.1 3.2-5.4 2.8-11.7-1.3-15-4.6-3.7-12.2-2.1-16.9 3.5-4.7 5.6-4.9 13.3-.3 17.1.2.2.4.3.6.4 4.6 3.2 11.8 1.5 16.4-3.9M1744.7 1322.9c-.2-.2-.5-.4-.8-.6-4.4-3.3-11.3-1.8-15.8 3.6-4.8 5.7-5.2 13.7-.9 17.8 4 3.9 10.8 3 15.6-1.8.4-.4.7-.7 1-1.1 5-5.8 5.3-13.9.9-17.9M1798.2 1319c4.7 4.2 12.4 2.8 17.4-3.1 4.9-5.9 5-14 .3-18.1-4.7-4.1-12.4-2.6-17.2 3.2-5 5.9-5.2 13.9-.5 18"/><path fill="#ff9725" d="M3743.6 2544.9c32.6-30.8 44.9-71.5 44.9-71.5s-53.8 2.8-64.8 20.6c-23.1 17.8-61.5 20.6-61.5 20.6l20.8 33.6c20.7 1.6 40.8.1 60.6-3.3"/><path fill="#e65e75" d="M3743.6 2544.9c-19.8 3.5-39.9 4.9-60.5 3.2l4.7 7.5s-.8.5-2.4 1.6c8.7 3.6 18.1 5.4 27.6 5.8 13.4.6 27 1.4 40.4 1.1-7.7-2.7-15.7-5.2-24-7.5 5.2-3.7 9.9-7.6 14.2-11.7"/><path fill="#ff8333" d="M3567.9 2864.7c74.9 82.8 193.1 74.9 295.6 55.2 89.9-15.5 128.6-101.7 135.2-189.6-66.2-75-179.3-143.1-245.3-166.2-13.5.3-27.1-.5-40.4-1.1-9.5-.4-18.9-2.1-27.6-5.8-13.8 9.2-94.3 82.3-154.6 166.2-4.9 52.2-2.2 102 37.1 141.3"/><path fill="#ffca75" d="M3998.7 2730.3c-6.7 87.9-45.4 174.1-135.2 189.6-102.5 19.7-220.7 27.6-295.6-55.2-39.3-39.3-42-89.1-37.1-141.3-71.5 99.6-114.5 214.5 16.7 255.9 254.4 80.3 490.3 51.6 502.9-130.5 4.9-37.7-16.9-79.1-51.7-118.5"/><path fill="#172c51" d="M3739.6 2724.8c-6.4-2.4-11.9-6.4-15.8-11.4-3.9-5-6.1-11-6-17.4 0-4.3 1.1-8.4 2.9-12.1 2.7-5.6 7.4-10.3 13.1-13.6 3.7-2.2 8-3.6 12.5-4.5l.1-24.3c-6 .6-11.8 1.9-17.2 3.8-11.4 4.1-21.2 11.1-28.1 19.8-6.9 8.7-11 19.4-11 30.8 0 7.6 1.7 14.9 4.9 21.5 4.1 8.6 10.7 16.1 18.9 21.8 1.3.9 2.6 1.8 4 2.6 8.1 4.8 17.7 8 27.9 9.2l.1-24.3c-2.2-.6-4.3-1.2-6.3-1.9M3767.8 2667.5c6.4 2.4 11.9 6.4 15.8 11.4 3.9 5 6.1 11 6 17.4l13.8.1 13.8.1c0-7.6-1.7-14.9-4.9-21.5-4.8-9.9-12.8-18.4-22.9-24.4-8.1-4.8-17.7-8-27.9-9.2l-.1 24.3c2.3.4 4.4 1 6.4 1.8M3739.1 2811.1c-6.4-2.4-11.9-6.4-15.8-11.4-3.9-5-6.1-11-6-17.4l-27.6-.2c0 7.6 1.7 14.9 4.9 21.5 4.8 9.9 12.8 18.4 22.9 24.4 8.1 4.8 17.7 8 27.9 9.2l.1-24.3c-2.3-.5-4.4-1.1-6.4-1.8M3767.4 2753.8c6.4 2.4 11.9 6.4 15.8 11.4 3.9 5 6.1 11 6 17.4 0 4.3-1.1 8.4-2.9 12.1-2.7 5.6-7.4 10.3-13.1 13.6-3.7 2.2-8 3.6-12.5 4.5l-.1 24.3c6-.6 11.8-1.9 17.2-3.8 11.4-4.1 21.2-11 28.1-19.8 6.9-8.7 11-19.4 11-30.8 0-7.6-1.7-14.9-4.9-21.5-4.1-8.6-10.7-16.1-18.9-21.8-1.3-.9-2.6-1.8-4-2.6-8.1-4.8-17.7-8-27.9-9.2l-.1 24.3c2.1.5 4.2 1.1 6.3 1.9"/><path fill="#172c51" d="m3745.3 2837.1-.1 26.5 15.2.1.1-26.5.1-24.4.4-60.8.1-24.2.4-62.1.1-24.2.2-26.5-15.2-.1-.2 26.5-.1 24.3-.4 60.8-.1 24.3-.4 62z"/><path fill="#6f93c9" d="m3537.5 2829.1-55 179.1 315.9 121.7 61.6-208.7-322.5-92.1zm262.8 281.9c-2.8 9.6-12 14.8-20.6 11.6-8.4-3.2-12.9-13.2-10.4-22.6l-256.3-96.6c-2.9 7.3-9.8 11.3-15.8 9-6.5-2.4-9.7-11.1-7.2-19.4 2.4-7.8 9-12.5 15.2-11.1l35.7-116.7c-.3-.1-.6-.1-.8-.2-6.6-1.9-9.9-10.2-7.4-18.4s9.8-13.3 16.4-11.5c5.9 1.6 9.2 8.2 8.2 15.4l265.4 77.8c3.3-8.4 11.9-13.2 20-10.9 8.7 2.4 13.6 12.1 10.9 21.7-2.8 9.5-12.1 15.2-20.8 12.6-.3-.1-.7-.2-1-.3l-40.6 137.1c7.7 3.7 11.8 13.4 9.1 22.5"/><path fill="#fff" d="M3822.2 2930.2c.2-.6.4-1.2.6-1.7l-265.4-77.9c-.1 1-.3 2-.6 3-2.4 7.9-9.3 13-15.7 11.7l-35.7 116.7c.4.1.7.2 1.1.3 6.6 2.4 9.9 11.1 7.3 19.4-.2.6-.4 1.1-.6 1.7l256.3 96.6c0-.1 0-.2.1-.3 2.8-9.5 11.8-14.7 20.3-11.6.5.2.9.4 1.4.6l40.6-137.1c-8.1-3.1-12.4-12.4-9.7-21.4m-44.3 152.8-262.4-96.5 36.7-120 266 80.3-40.3 136.2z"/><path fill="#aecff1" d="m3515.5 2986.5 262.4 96.5 40.4-136.2-266-80.3-36.8 120zm246.3-2.4c8.2 2.6 12.8 12.3 10 21.7-2.7 9.3-11.6 14.7-19.9 11.9-8.2-2.7-12.5-12.4-9.8-21.6 2.7-9.2 11.5-14.6 19.7-12m-89.2-68.9c24.9 7.5 38.5 37.6 29.8 67.2s-36.2 46.5-60.9 37.8c-24.1-8.5-36.3-38.4-27.9-66.8 8.5-28.4 34.7-45.5 59-38.2m-101.8 8c6.9 2.2 10.4 10.9 7.9 19.4-2.6 8.5-10.2 13.6-17.1 11.2-6.8-2.3-10.3-11-7.7-19.4 2.5-8.4 10.1-13.4 16.9-11.2"/><path fill="#6f93c9" d="M3662 2991.4c1-1.2 1.7-2.5 2.2-4.1.7-2.4.7-4.8 0-7s-1.9-4.2-3.6-5.8c-.5-.5-1.1-.9-1.8-1.3l-6.7 22.1c1.5.2 2.9.1 4.3-.3 2.2-.6 4.1-1.9 5.6-3.6M3653.8 2944.5c-1 1.2-1.7 2.5-2.2 4.1-.7 2.3-.7 4.7 0 6.9.6 2.2 1.9 4.2 3.6 5.7.5.5 1.1.9 1.8 1.3l6.6-22c-1.5-.1-2.9 0-4.3.4-2.2.5-4.1 1.8-5.5 3.6"/><path fill="#6f93c9" d="M3641.6 3020.1c24.6 8.7 52.1-8.1 60.9-37.8 8.7-29.6-4.9-59.7-29.8-67.2-24.3-7.3-50.5 9.8-59 38.2-8.5 28.4 3.8 58.3 27.9 66.8m5.1-55c-.3-.4-.6-.9-.9-1.3-1.9-2.9-3.1-6.2-3.4-9.7-.3-2.7 0-5.5.8-8.2 1.2-4.1 3.6-7.5 6.6-10 3-2.5 6.7-4.1 10.7-4.5 1.9-.2 3.8-.1 5.7.2l2.9-9.6 4.7 1.5-2.9 9.6c3.1 1.4 5.7 3.5 7.7 6 2.5 3.2 4.1 7 4.5 11.1.3 2.7 0 5.6-.8 8.4l-4.3-1.4-4.3-1.4c.7-2.4.7-4.8 0-7s-1.9-4.2-3.7-5.7c-.5-.5-1.1-.9-1.8-1.3l-6.8 22.5c3 1.4 5.7 3.6 7.6 6.2.3.4.7.9 1 1.3 1.9 2.9 3.2 6.3 3.5 9.9.3 2.8 0 5.6-.8 8.4-1.2 4.2-3.7 7.7-6.8 10.1-3.1 2.5-6.9 4-10.8 4.3-1.9.1-3.8 0-5.7-.4l-2.9 9.7-4.6-1.7 2.9-9.6c-3-1.5-5.6-3.7-7.5-6.3-2.4-3.2-3.9-7.1-4.3-11.2-.3-2.7 0-5.5.8-8.3l8.4 2.9c-.7 2.4-.7 4.7 0 6.9.6 2.2 1.9 4.2 3.6 5.8.5.5 1.1.9 1.8 1.3l6.8-22.5c-3.1-1.3-5.7-3.5-7.7-6"/><path fill="#2d65af" d="M3655.2 2961.1c-1.7-1.5-3-3.5-3.6-5.7-.6-2.2-.7-4.6 0-6.9.5-1.6 1.2-2.9 2.2-4.1 1.4-1.7 3.4-3 5.5-3.7 1.4-.4 2.8-.6 4.3-.4l2.7-8.8c-1.9-.4-3.8-.4-5.7-.2-3.9.4-7.6 2-10.7 4.5-3 2.5-5.4 5.9-6.6 10-.8 2.7-1.1 5.5-.8 8.2.3 3.5 1.5 6.8 3.4 9.7.3.5.6.9.9 1.3 2 2.6 4.5 4.7 7.5 6.1l2.7-8.8c-.7-.3-1.3-.7-1.8-1.2M3670 2943.1c1.7 1.5 3 3.5 3.7 5.7.7 2.2.7 4.6 0 7l4.3 1.4 4.3 1.4c.8-2.8 1.1-5.6.8-8.4-.4-4.1-2-8-4.5-11.1-2-2.5-4.6-4.6-7.7-6l-2.7 8.8c.7.3 1.3.7 1.8 1.2M3645.7 2992.4c-1.7-1.5-2.9-3.6-3.6-5.8-.6-2.2-.7-4.6 0-6.9l-8.4-2.9c-.8 2.7-1.1 5.5-.8 8.3.4 4.1 1.9 8 4.3 11.2 1.9 2.6 4.5 4.8 7.5 6.3l2.7-8.8c-.5-.5-1.1-.9-1.7-1.4M3660.6 2974.5c1.7 1.5 3 3.5 3.6 5.8s.7 4.6 0 7c-.5 1.6-1.2 3-2.2 4.1-1.5 1.7-3.4 3-5.5 3.6-1.4.4-2.8.5-4.3.3l-2.7 8.9c1.9.4 3.8.6 5.7.4 4-.3 7.7-1.8 10.8-4.3 3.1-2.5 5.5-6 6.8-10.1.8-2.8 1.1-5.6.8-8.4-.4-3.6-1.6-7-3.5-9.9-.3-.5-.6-.9-1-1.3-2-2.6-4.6-4.7-7.6-6.2l-2.7 8.8c.6.4 1.2.8 1.8 1.3"/><path fill="#2d65af" d="m3644.8 3002.5-2.9 9.7 4.7 1.6 2.9-9.6 2.6-8.9 6.7-22.1 2.7-8.8 6.8-22.6 2.6-8.8 2.9-9.6-4.7-1.4-2.9 9.6-2.6 8.8-6.7 22-2.6 8.8-6.8 22.5z"/><path fill="#6f93c9" d="M3752 3017.7c8.2 2.8 17.1-2.6 19.9-11.9 2.7-9.3-1.8-19.1-10-21.7-8.2-2.6-17 2.7-19.7 12-2.8 9.2 1.6 18.9 9.8 21.6M3769.5 3099.6c0 .1-.1.2-.1.3-2.6 9.4 2 19.5 10.4 22.6 8.5 3.2 17.8-2 20.6-11.6 2.6-9.1-1.4-18.8-9.1-22.4-.5-.2-.9-.4-1.4-.6-8.6-3-17.7 2.2-20.4 11.7M3831.8 2951.5c.3.1.6.2 1 .3 8.7 2.6 18-3.1 20.8-12.6 2.8-9.5-2.1-19.2-10.9-21.7-8.1-2.3-16.7 2.6-20 10.9-.2.6-.4 1.1-.6 1.7-2.6 9.2 1.7 18.4 9.7 21.4M3556.7 2853.6c.3-1 .5-2 .6-3 1-7.2-2.4-13.8-8.2-15.4-6.6-1.8-13.9 3.3-16.4 11.5-2.5 8.2.8 16.4 7.4 18.4.3.1.6.1.8.2 6.5 1.3 13.4-3.7 15.8-11.7M3506.4 2982.3c-.4-.1-.7-.2-1.1-.3-6.2-1.5-12.8 3.3-15.2 11.1-2.5 8.3.7 17 7.2 19.4 6.1 2.3 12.9-1.7 15.8-9 .2-.5.4-1.1.6-1.7 2.5-8.4-.8-17.2-7.3-19.5M3561.6 2953.8c6.9 2.3 14.5-2.7 17.1-11.2 2.5-8.5-1-17.2-7.9-19.4-6.8-2.2-14.4 2.9-16.9 11.3-2.6 8.3.9 17 7.7 19.3"/><path fill="#242459" d="M3134.7 915.8s30.2 80.1-23.9 79.4c-54.1-.7-58.8-72.5-35.4-100.9-23.6-14.3-32.8-93.7 36.1-87.3 0 0 17.6-91.3 143.3-33.7 0 0 36.4 25.3 49.4 18.2 13.1-7 65.7-16.1 70 18.3 4.2 34.4-19.7 36.9-27 33.7 10.5 9.1 27.7 45-2.5 54.1-30.2 9.1-64.3 11.6-70.2-18.6 0 0-42.8 24.2-41.8-14.8 1.1-39-65-29.8-73.4-27 14 10.5 12.6 48.2-19.2 45.9 14.1 9.3 10.8 38.8-5.4 32.7"/><path fill="#ff9725" d="M3220.7 1284.4c0 3.9-3.2 7.1-7.1 7.1-3.9 0-7.1-3.2-7.1-7.1 0-3.9 3.2-7.1 7.1-7.1 3.9 0 7.1 3.1 7.1 7.1M3217.2 1319.5c0 3.4-2.8 6.2-6.2 6.2-3.4 0-6.2-2.8-6.2-6.2 0-3.4 2.8-6.2 6.2-6.2 3.4 0 6.2 2.8 6.2 6.2M3217.6 1358.9c0 3.5-3.3 6.3-7.4 6.3-4.1 0-7.4-2.8-7.4-6.3s3.3-6.3 7.4-6.3c4-.1 7.4 2.8 7.4 6.3"/></svg>